M48
;Layer_Color=9474304
;FILE_FORMAT=2:5
INCH,LZ
;TYPE=PLATED
T01F00S00C0.01500
%
T01
X0374Y0122
Y0134
X0388Y015
X0398Y0176
Y0184
Y02
Y0208
X037Y0196
X0452Y019
Y017
X0364Y0144
X0366Y0134
X0362Y0122
X0338Y0142
X0334Y0149268
Y0154668
X033Y0196
X0296Y0184
X029
Y0176
X0296
X0312Y0234
X034
X0368
X0356Y027
X0328
X03
X0382
X0393828Y0228172
M30
