G04*
G04 #@! TF.GenerationSoftware,Altium Limited,Altium Designer,25.4.2 (15)*
G04*
G04 Layer_Color=128*
%FSLAX44Y44*%
%MOMM*%
G71*
G04*
G04 #@! TF.SameCoordinates,8E47D831-5235-4EDE-A1CE-FBF80302A2F1*
G04*
G04*
G04 #@! TF.FilePolarity,Positive*
G04*
G01*
G75*
%ADD15C,0.1270*%
D15*
X708720Y309880D02*
X717720D01*
X713220Y305380D02*
Y314380D01*
X643720Y309880D02*
X652720D01*
X648220Y305380D02*
Y314380D01*
X604100Y523240D02*
X615100D01*
X609600Y517740D02*
Y528740D01*
X604100Y497840D02*
X615100D01*
X609600Y492340D02*
Y503340D01*
X604100Y472440D02*
X615100D01*
X609600Y466940D02*
Y477940D01*
X604100Y447040D02*
X615100D01*
X609600Y441540D02*
Y452540D01*
X604100Y396240D02*
X615100D01*
X609600Y390740D02*
Y401740D01*
X604100Y421640D02*
X615100D01*
X609600Y416140D02*
Y427140D01*
X842860Y711200D02*
X853860D01*
X848360Y705700D02*
Y716700D01*
X817460Y711200D02*
X828460D01*
X822960Y705700D02*
Y716700D01*
X792060Y711200D02*
X803060D01*
X797560Y705700D02*
Y716700D01*
X766660Y711200D02*
X777660D01*
X772160Y705700D02*
Y716700D01*
X741260Y711200D02*
X752260D01*
X746760Y705700D02*
Y716700D01*
X715860Y711200D02*
X726860D01*
X721360Y705700D02*
Y716700D01*
X690460Y711200D02*
X701460D01*
X695960Y705700D02*
Y716700D01*
X665060Y711200D02*
X676060D01*
X670560Y705700D02*
Y716700D01*
X639660Y711200D02*
X650660D01*
X645160Y705700D02*
Y716700D01*
X614260Y711200D02*
X625260D01*
X619760Y705700D02*
Y716700D01*
X1137920Y558800D02*
X1148080D01*
X1143000Y553720D02*
Y563880D01*
X1163320Y558800D02*
X1173480D01*
X1168400Y553720D02*
Y563880D01*
X1087120Y558800D02*
X1097280D01*
X1092200Y553720D02*
Y563880D01*
X1112520Y558800D02*
X1122680D01*
X1117600Y553720D02*
Y563880D01*
X1137920Y635000D02*
X1148080D01*
X1143000Y629920D02*
Y640080D01*
X1163320Y635000D02*
X1173480D01*
X1168400Y629920D02*
Y640080D01*
X1087120Y635000D02*
X1097280D01*
X1092200Y629920D02*
Y640080D01*
X1112520Y635000D02*
X1122680D01*
X1117600Y629920D02*
Y640080D01*
X501142Y494400D02*
X509142D01*
X505141Y490400D02*
Y498400D01*
X548642Y494400D02*
X556642D01*
X552641Y490400D02*
Y498400D01*
X548642Y420000D02*
X556642D01*
X552641Y416000D02*
Y424000D01*
X557659Y441001D02*
X565658D01*
X561659Y437001D02*
Y445001D01*
X557659Y457001D02*
X565658D01*
X561659Y453001D02*
Y461001D01*
X545621Y449002D02*
X553621D01*
X549622Y445002D02*
Y453002D01*
X545621Y465002D02*
X553621D01*
X549622Y461002D02*
Y469002D01*
X557659Y473000D02*
X565658D01*
X561659Y469000D02*
Y477000D01*
X501142Y420000D02*
X509142D01*
X505141Y416000D02*
Y424000D01*
X934300Y228600D02*
X945300D01*
X939800Y223100D02*
Y234100D01*
X959700Y228600D02*
X970700D01*
X965200Y223100D02*
Y234100D01*
X985100Y228600D02*
X996100D01*
X990600Y223100D02*
Y234100D01*
X1010500Y228600D02*
X1021500D01*
X1016000Y223100D02*
Y234100D01*
X1061300Y228600D02*
X1072300D01*
X1066800Y223100D02*
Y234100D01*
X1035900Y228600D02*
X1046900D01*
X1041400Y223100D02*
Y234100D01*
X1061300Y711200D02*
X1072300D01*
X1066800Y705700D02*
Y716700D01*
X1035900Y711200D02*
X1046900D01*
X1041400Y705700D02*
Y716700D01*
X1010500Y711200D02*
X1021500D01*
X1016000Y705700D02*
Y716700D01*
X985100Y711200D02*
X996100D01*
X990600Y705700D02*
Y716700D01*
X959700Y711200D02*
X970700D01*
X965200Y705700D02*
Y716700D01*
X934300Y711200D02*
X945300D01*
X939800Y705700D02*
Y716700D01*
X908900Y711200D02*
X919900D01*
X914400Y705700D02*
Y716700D01*
X883500Y711200D02*
X894500D01*
X889000Y705700D02*
Y716700D01*
X705700Y228600D02*
X716700D01*
X711200Y223100D02*
Y234100D01*
X731100Y228600D02*
X742100D01*
X736600Y223100D02*
Y234100D01*
X756500Y228600D02*
X767500D01*
X762000Y223100D02*
Y234100D01*
X781900Y228600D02*
X792900D01*
X787400Y223100D02*
Y234100D01*
X807300Y228600D02*
X818300D01*
X812800Y223100D02*
Y234100D01*
X832700Y228600D02*
X843700D01*
X838200Y223100D02*
Y234100D01*
X858100Y228600D02*
X869100D01*
X863600Y223100D02*
Y234100D01*
X883500Y228600D02*
X894500D01*
X889000Y223100D02*
Y234100D01*
X562000Y584200D02*
X574000D01*
X568000Y578200D02*
Y590200D01*
X502000Y584200D02*
X514000D01*
X508000Y578200D02*
Y590200D01*
X538000Y537700D02*
X548000D01*
X543000Y532700D02*
Y542700D01*
X528400Y312700D02*
X538400D01*
X533400Y307700D02*
Y317700D01*
X528400Y347700D02*
X538400D01*
X533400Y342700D02*
Y352700D01*
X1035900Y431800D02*
X1046900D01*
X1041400Y426300D02*
Y437300D01*
X1035900Y457200D02*
X1046900D01*
X1041400Y451700D02*
Y462700D01*
X1035900Y482600D02*
X1046900D01*
X1041400Y477100D02*
Y488100D01*
X856615Y534670D02*
X860425D01*
X858520Y532765D02*
Y536575D01*
X810895Y363220D02*
X814705D01*
X812800Y361315D02*
Y365125D01*
X744855Y645160D02*
X748665D01*
X746760Y643255D02*
Y647065D01*
X765175Y655320D02*
X768985D01*
X767080Y653415D02*
Y657225D01*
X920115Y579120D02*
X923925D01*
X922020Y577215D02*
Y581025D01*
X932815Y586740D02*
X936625D01*
X934720Y584835D02*
Y588645D01*
X859155Y599440D02*
X862965D01*
X861060Y597535D02*
Y601345D01*
X831215Y594360D02*
X835025D01*
X833120Y592455D02*
Y596265D01*
X775335Y457200D02*
X779145D01*
X777240Y455295D02*
Y459105D01*
X762635Y480060D02*
X766445D01*
X764540Y478155D02*
Y481965D01*
X721995Y480060D02*
X725805D01*
X723900Y478155D02*
Y481965D01*
X734695Y429260D02*
X738505D01*
X736600Y427355D02*
Y431165D01*
X749935Y429260D02*
X753745D01*
X751840Y427355D02*
Y431165D01*
X749935Y447040D02*
X753745D01*
X751840Y445135D02*
Y448945D01*
X734695Y447040D02*
X738505D01*
X736600Y445135D02*
Y448945D01*
X749935Y469900D02*
X753745D01*
X751840Y467995D02*
Y471805D01*
X734695Y469900D02*
X738505D01*
X736600Y467995D02*
Y471805D01*
X963295Y330200D02*
X967105D01*
X965200Y328295D02*
Y332105D01*
X912495Y330200D02*
X916305D01*
X914400Y328295D02*
Y332105D01*
X1021715Y535940D02*
X1025525D01*
X1023620Y534035D02*
Y537845D01*
X1021715Y508000D02*
X1025525D01*
X1023620Y506095D02*
Y509905D01*
X1001395Y480060D02*
X1005205D01*
X1003300Y478155D02*
Y481965D01*
X1001395Y434340D02*
X1005205D01*
X1003300Y432435D02*
Y436245D01*
X960755Y299720D02*
X964565D01*
X962660Y297815D02*
Y301625D01*
X907415Y299720D02*
X911225D01*
X909320Y297815D02*
Y301625D01*
X848995Y393700D02*
X852805D01*
X850900Y391795D02*
Y395605D01*
X864235Y363220D02*
X868045D01*
X866140Y361315D02*
Y365125D01*
X925195Y370840D02*
X929005D01*
X927100Y368935D02*
Y372745D01*
X953135Y340360D02*
X956945D01*
X955040Y338455D02*
Y342265D01*
X950595Y309880D02*
X954405D01*
X952500Y307975D02*
Y311785D01*
X1009015Y444500D02*
X1012825D01*
X1010920Y442595D02*
Y446405D01*
X1009015Y469900D02*
X1012825D01*
X1010920Y467995D02*
Y471805D01*
X1009015Y505460D02*
X1012825D01*
X1010920Y503555D02*
Y507365D01*
X1009015Y530860D02*
X1012825D01*
X1010920Y528955D02*
Y532765D01*
X922655Y340360D02*
X926465D01*
X924560Y338455D02*
Y342265D01*
X917575Y309880D02*
X921385D01*
X919480Y307975D02*
Y311785D01*
X876935Y477520D02*
X880745D01*
X878840Y475615D02*
Y479425D01*
X983615Y434340D02*
X987425D01*
X985520Y432435D02*
Y436245D01*
X998855Y594360D02*
X1002665D01*
X1000760Y592455D02*
Y596265D01*
X790575Y584200D02*
X794385D01*
X792480Y582295D02*
Y586105D01*
X815975Y513080D02*
X819785D01*
X817880Y511175D02*
Y514985D01*
X968375Y685800D02*
X972185D01*
X970280Y683895D02*
Y687705D01*
X902335Y685800D02*
X906145D01*
X904240Y683895D02*
Y687705D01*
X831215Y685800D02*
X835025D01*
X833120Y683895D02*
Y687705D01*
X760095Y685800D02*
X763905D01*
X762000Y683895D02*
Y687705D01*
X983615Y482600D02*
X987425D01*
X985520Y480695D02*
Y484505D01*
X983615Y467360D02*
X987425D01*
X985520Y465455D02*
Y469265D01*
X942975Y434340D02*
X946785D01*
X944880Y432435D02*
Y436245D01*
X942975Y447040D02*
X946785D01*
X944880Y445135D02*
Y448945D01*
X937895Y497840D02*
X941705D01*
X939800Y495935D02*
Y499745D01*
X826135Y363220D02*
X829945D01*
X828040Y361315D02*
Y365125D01*
X821055Y350520D02*
X824865D01*
X822960Y348615D02*
Y352425D01*
X846455Y379142D02*
X850265D01*
X848360Y377237D02*
Y381047D01*
X983615Y381000D02*
X987425D01*
X985520Y379095D02*
Y382905D01*
X1146175Y431800D02*
X1149985D01*
X1148080Y429895D02*
Y433705D01*
X1146175Y482600D02*
X1149985D01*
X1148080Y480695D02*
Y484505D01*
X795655Y466090D02*
X799465D01*
X797560Y464185D02*
Y467995D01*
M02*
