M48
;Layer_Color=9474304
;FILE_FORMAT=2:5
INCH
;TYPE=PLATED
T01F00S00C0.01500
T02F00S00C0.03150
T04F00S00C0.03543
T05F00S00C0.03937
T07F00S00C0.04000
T08F00S00C0.04331
%
T01
X0379000Y0118000
X0375000Y0122000
X0380000Y0130000
X0376000Y0134000
X0388000Y0150000
Y0171000
X0395000
X0398000Y0175000
Y0185000
X0395000Y0189000
X0388000Y0190000
Y0184000
X0372000Y0176000
Y0171000
X0370000Y0196000
X0398000Y0199000
X0403000Y0200000
Y0211000
X0398000Y0209000
X0452000Y0190000
Y0170000
X0365000Y0146000
X0364000Y0134000
X0360000Y0130000
X0362000Y0122000
X0358000Y0118000
X0341000Y0143000
X0334000Y0149268
X0335000Y0155000
X0326000Y0143000
X0320000
X0324000Y0138000
X0314000Y0183500
X0306000Y0180000
X0301000Y0189000
X0296000Y0185000
X0290000
X0285000Y0189000
X0290000Y0176000
X0296000
Y0169000
X0290000
X0322000Y0202000
X0338000Y0210500
X0346000Y0188000
X0339000Y0236000
X0328000Y0234000
X0312000Y0230000
X0302000Y0258000
X0294000Y0254000
X0300000Y0270000
X0328000
X0356000
X0363000Y0228000
X0368000Y0231000
X0394000Y0234000
X0382000Y0270000
T02
X0216386Y0176772
Y0183071
X0221125Y0186221
Y0179921
Y0173623
T04
X0255205Y0122000
X0280795
T05
X0210000Y0123110
Y0136890
T07
X0430000Y0220000
X0440000
X0450000
X0460000
Y0250000
X0450000
X0440000
X0430000
T08
X0370000Y0090000
X0380000
X0390000
X0400000
X0410000
X0420000
X0410000Y0170000
Y0180000
Y0190000
X0350000Y0090000
X0340000
X0330000
X0320000
X0310000
X0300000
X0290000
X0280000
X0240000Y0156000
Y0166000
Y0176000
Y0186000
Y0196000
Y0206000
X0244000Y0280000
X0254000
X0264000
X0274000
X0284000
X0294000
X0304000
X0314000
X0324000
X0334000
X0350000
X0360000
X0370000
X0380000
X0390000
X0400000
X0410000
X0420000
M30
