G04*
G04 #@! TF.GenerationSoftware,Altium Limited,Altium Designer,25.4.2 (15)*
G04*
G04 Layer_Color=128*
%FSLAX44Y44*%
%MOMM*%
G71*
G04*
G04 #@! TF.SameCoordinates,F20BE116-99DB-4855-A558-1B6AC0D64E7D*
G04*
G04*
G04 #@! TF.FilePolarity,Positive*
G04*
G01*
G75*
%ADD15C,0.1270*%
D15*
X708720Y309880D02*
X717720D01*
X713220Y305380D02*
Y314380D01*
X643720Y309880D02*
X652720D01*
X648220Y305380D02*
Y314380D01*
X604100Y523240D02*
X615100D01*
X609600Y517740D02*
Y528740D01*
X604100Y497840D02*
X615100D01*
X609600Y492340D02*
Y503340D01*
X604100Y472440D02*
X615100D01*
X609600Y466940D02*
Y477940D01*
X604100Y447040D02*
X615100D01*
X609600Y441540D02*
Y452540D01*
X604100Y396240D02*
X615100D01*
X609600Y390740D02*
Y401740D01*
X604100Y421640D02*
X615100D01*
X609600Y416140D02*
Y427140D01*
X842860Y711200D02*
X853860D01*
X848360Y705700D02*
Y716700D01*
X817460Y711200D02*
X828460D01*
X822960Y705700D02*
Y716700D01*
X792060Y711200D02*
X803060D01*
X797560Y705700D02*
Y716700D01*
X766660Y711200D02*
X777660D01*
X772160Y705700D02*
Y716700D01*
X741260Y711200D02*
X752260D01*
X746760Y705700D02*
Y716700D01*
X715860Y711200D02*
X726860D01*
X721360Y705700D02*
Y716700D01*
X690460Y711200D02*
X701460D01*
X695960Y705700D02*
Y716700D01*
X665060Y711200D02*
X676060D01*
X670560Y705700D02*
Y716700D01*
X639660Y711200D02*
X650660D01*
X645160Y705700D02*
Y716700D01*
X614260Y711200D02*
X625260D01*
X619760Y705700D02*
Y716700D01*
X1137920Y558800D02*
X1148080D01*
X1143000Y553720D02*
Y563880D01*
X1163320Y558800D02*
X1173480D01*
X1168400Y553720D02*
Y563880D01*
X1087120Y558800D02*
X1097280D01*
X1092200Y553720D02*
Y563880D01*
X1112520Y558800D02*
X1122680D01*
X1117600Y553720D02*
Y563880D01*
X1137920Y635000D02*
X1148080D01*
X1143000Y629920D02*
Y640080D01*
X1163320Y635000D02*
X1173480D01*
X1168400Y629920D02*
Y640080D01*
X1087120Y635000D02*
X1097280D01*
X1092200Y629920D02*
Y640080D01*
X1112520Y635000D02*
X1122680D01*
X1117600Y629920D02*
Y640080D01*
X501142Y494400D02*
X509142D01*
X505141Y490400D02*
Y498400D01*
X548642Y494400D02*
X556642D01*
X552641Y490400D02*
Y498400D01*
X548642Y420000D02*
X556642D01*
X552641Y416000D02*
Y424000D01*
X557659Y441001D02*
X565658D01*
X561659Y437001D02*
Y445001D01*
X557659Y457001D02*
X565658D01*
X561659Y453001D02*
Y461001D01*
X545621Y449002D02*
X553621D01*
X549622Y445002D02*
Y453002D01*
X545621Y465002D02*
X553621D01*
X549622Y461002D02*
Y469002D01*
X557659Y473000D02*
X565658D01*
X561659Y469000D02*
Y477000D01*
X501142Y420000D02*
X509142D01*
X505141Y416000D02*
Y424000D01*
X934300Y228600D02*
X945300D01*
X939800Y223100D02*
Y234100D01*
X959700Y228600D02*
X970700D01*
X965200Y223100D02*
Y234100D01*
X985100Y228600D02*
X996100D01*
X990600Y223100D02*
Y234100D01*
X1010500Y228600D02*
X1021500D01*
X1016000Y223100D02*
Y234100D01*
X1061300Y228600D02*
X1072300D01*
X1066800Y223100D02*
Y234100D01*
X1035900Y228600D02*
X1046900D01*
X1041400Y223100D02*
Y234100D01*
X1061300Y711200D02*
X1072300D01*
X1066800Y705700D02*
Y716700D01*
X1035900Y711200D02*
X1046900D01*
X1041400Y705700D02*
Y716700D01*
X1010500Y711200D02*
X1021500D01*
X1016000Y705700D02*
Y716700D01*
X985100Y711200D02*
X996100D01*
X990600Y705700D02*
Y716700D01*
X959700Y711200D02*
X970700D01*
X965200Y705700D02*
Y716700D01*
X934300Y711200D02*
X945300D01*
X939800Y705700D02*
Y716700D01*
X908900Y711200D02*
X919900D01*
X914400Y705700D02*
Y716700D01*
X883500Y711200D02*
X894500D01*
X889000Y705700D02*
Y716700D01*
X705700Y228600D02*
X716700D01*
X711200Y223100D02*
Y234100D01*
X731100Y228600D02*
X742100D01*
X736600Y223100D02*
Y234100D01*
X756500Y228600D02*
X767500D01*
X762000Y223100D02*
Y234100D01*
X781900Y228600D02*
X792900D01*
X787400Y223100D02*
Y234100D01*
X807300Y228600D02*
X818300D01*
X812800Y223100D02*
Y234100D01*
X832700Y228600D02*
X843700D01*
X838200Y223100D02*
Y234100D01*
X858100Y228600D02*
X869100D01*
X863600Y223100D02*
Y234100D01*
X883500Y228600D02*
X894500D01*
X889000Y223100D02*
Y234100D01*
X562000Y584200D02*
X574000D01*
X568000Y578200D02*
Y590200D01*
X502000Y584200D02*
X514000D01*
X508000Y578200D02*
Y590200D01*
X538000Y537700D02*
X548000D01*
X543000Y532700D02*
Y542700D01*
X528400Y312700D02*
X538400D01*
X533400Y307700D02*
Y317700D01*
X528400Y347700D02*
X538400D01*
X533400Y342700D02*
Y352700D01*
X1035900Y431800D02*
X1046900D01*
X1041400Y426300D02*
Y437300D01*
X1035900Y457200D02*
X1046900D01*
X1041400Y451700D02*
Y462700D01*
X1035900Y482600D02*
X1046900D01*
X1041400Y477100D02*
Y488100D01*
X983615Y467360D02*
X987425D01*
X985520Y465455D02*
Y469265D01*
X942975Y447040D02*
X946785D01*
X944880Y445135D02*
Y448945D01*
X765175Y457200D02*
X768985D01*
X767080Y455295D02*
Y459105D01*
X821055Y350520D02*
X824865D01*
X822960Y348615D02*
Y352425D01*
M02*
