G04*
G04 #@! TF.GenerationSoftware,Altium Limited,Altium Designer,25.4.2 (15)*
G04*
G04 Layer_Physical_Order=1*
G04 Layer_Color=255*
%FSLAX44Y44*%
%MOMM*%
G71*
G04*
G04 #@! TF.SameCoordinates,8E47D831-5235-4EDE-A1CE-FBF80302A2F1*
G04*
G04*
G04 #@! TF.FilePolarity,Positive*
G04*
G01*
G75*
%ADD10C,0.1524*%
%ADD11C,0.2540*%
%ADD17R,1.8034X1.1176*%
%ADD18R,1.2065X1.9000*%
%ADD19R,1.1176X1.8034*%
G04:AMPARAMS|DCode=20|XSize=1.35mm|YSize=0.59mm|CornerRadius=0.1475mm|HoleSize=0mm|Usage=FLASHONLY|Rotation=180.000|XOffset=0mm|YOffset=0mm|HoleType=Round|Shape=RoundedRectangle|*
%AMROUNDEDRECTD20*
21,1,1.3500,0.2950,0,0,180.0*
21,1,1.0550,0.5900,0,0,180.0*
1,1,0.2950,-0.5275,0.1475*
1,1,0.2950,0.5275,0.1475*
1,1,0.2950,0.5275,-0.1475*
1,1,0.2950,-0.5275,-0.1475*
%
%ADD20ROUNDEDRECTD20*%
%ADD21R,1.4700X0.3000*%
%ADD22R,1.4500X0.3000*%
%ADD39C,0.1524*%
%ADD40C,0.5080*%
%ADD41C,1.6000*%
%ADD42C,1.5240*%
%ADD43C,1.7780*%
%ADD44O,2.4000X1.2000*%
%ADD45C,1.2000*%
%ADD46O,2.0000X3.8000*%
%ADD47O,3.3000X1.8000*%
%ADD48C,2.0000*%
%ADD49C,1.6500*%
%ADD50C,0.7112*%
D10*
X736600Y447040D02*
X746598Y437042D01*
X736600Y447040D02*
Y447040D01*
X751840D02*
X751840Y447040D01*
X873760D01*
X751840Y469900D02*
Y543560D01*
X736600Y469900D02*
Y533400D01*
X782320Y432693D02*
X783213Y431800D01*
X771714Y437580D02*
X772160Y438026D01*
X781427Y441960D02*
X782320Y441067D01*
X773053Y441960D02*
X781427D01*
X873760Y447040D02*
X924406Y396394D01*
X908107Y391738D02*
X908845Y391000D01*
X772160Y438026D02*
Y441067D01*
X908107Y391738D02*
Y397453D01*
X782320Y432693D02*
Y441067D01*
X772160D02*
X773053Y441960D01*
X771176Y437042D02*
X771714Y437580D01*
X866878Y371000D02*
X867000D01*
X866140Y363220D02*
Y370262D01*
X866878Y371000D01*
X914518Y375802D02*
X922138D01*
X927100Y370840D01*
X955040Y391160D02*
X965200Y401320D01*
X955040Y340360D02*
Y391160D01*
X914400Y340360D02*
X924560D01*
X645160Y650240D02*
X751840Y543560D01*
X645160Y650240D02*
Y711200D01*
X619760Y650240D02*
X736600Y533400D01*
X619760Y650240D02*
Y707763D01*
X965200Y401320D02*
Y457200D01*
X838200Y309372D02*
X862707D01*
X868680Y315345D01*
Y319147D01*
X787400Y309372D02*
Y355600D01*
X817800Y386000D02*
X867000D01*
X787400Y355600D02*
X817800Y386000D01*
X899080D02*
X911000D01*
X894080Y381000D02*
X899080Y386000D01*
X894080Y340360D02*
Y381000D01*
X889000Y335280D02*
X894080Y340360D01*
X889000Y331093D02*
Y335280D01*
X888107Y330200D02*
X889000Y331093D01*
X879733Y330200D02*
X888107D01*
X878840Y329307D02*
X879733Y330200D01*
X878840Y320933D02*
Y329307D01*
X877947Y320040D02*
X878840Y320933D01*
X869573Y320040D02*
X877947D01*
X868680Y319147D02*
X869573Y320040D01*
X815594D02*
X858520D01*
X812800Y317246D02*
X815594Y320040D01*
X812800Y309372D02*
Y317246D01*
X888840Y391000D02*
X908107D01*
X883920Y386080D02*
X888840Y391000D01*
X883920Y345440D02*
Y386080D01*
X858520Y320040D02*
X883920Y345440D01*
X746598Y437042D02*
X771176D01*
X792480Y432693D02*
Y435987D01*
X793373Y436880D02*
X868680D01*
X792480Y435987D02*
X793373Y436880D01*
X791587Y431800D02*
X792480Y432693D01*
X783213Y431800D02*
X791587D01*
X868680Y436880D02*
X908107Y397453D01*
X908845Y391000D02*
X911000D01*
Y376000D02*
X914320D01*
X914518Y375802D01*
X924406Y387091D02*
Y396394D01*
X923513Y386198D02*
X924406Y387091D01*
X911198Y386198D02*
X923513D01*
X911000Y386000D02*
X911198Y386198D01*
X911000Y343760D02*
Y371000D01*
Y343760D02*
X914400Y340360D01*
X822960Y350520D02*
X829742D01*
X855142Y375920D01*
X866920D01*
X867000Y376000D01*
D11*
X728460Y294640D02*
X889000D01*
X904240Y309880D02*
X919480D01*
X889000Y294640D02*
X904240Y309880D01*
X756920Y655320D02*
X767080D01*
X746760Y645160D02*
X756920Y655320D01*
X920369Y623240D02*
Y651129D01*
X879756Y676556D02*
X887427D01*
X888111Y677240D01*
X909320Y675640D02*
X918769D01*
X904523Y680437D02*
Y685517D01*
Y680437D02*
X909320Y675640D01*
X849249Y646049D02*
X879756Y676556D01*
X849249Y623240D02*
Y646049D01*
X953467Y676556D02*
X954151Y677240D01*
X945796Y676556D02*
X953467D01*
X920369Y651129D02*
X945796Y676556D01*
X919262Y594324D02*
X927136D01*
X934720Y586740D01*
X919226Y594360D02*
X919262Y594324D01*
X985266Y590931D02*
X988695Y594360D01*
X833120D02*
X848106D01*
X852137Y393700D02*
X854607Y391230D01*
X861020D01*
X850900Y393700D02*
X852137D01*
X861020Y391230D02*
X861250Y391000D01*
X952500Y309880D02*
X980440D01*
X1010920Y469900D02*
Y505460D01*
Y530860D02*
Y690880D01*
X988695Y594360D02*
X1000760D01*
X776986D02*
X779562Y591784D01*
X784896D02*
X792480Y584200D01*
X779562Y591784D02*
X784896D01*
X990600Y711200D02*
X1010920Y690880D01*
Y340360D02*
Y444500D01*
X980440Y309880D02*
X1010920Y340360D01*
X778129Y646049D02*
X808636Y676556D01*
X778129Y623240D02*
Y646049D01*
X764976Y677240D02*
X778129D01*
X762000Y680216D02*
Y685800D01*
Y680216D02*
X764976Y677240D01*
X769730Y708770D02*
X772160Y711200D01*
X764650Y708770D02*
X769730D01*
X745871Y689991D02*
X764650Y708770D01*
X745871Y677240D02*
Y689991D01*
X816307Y676556D02*
X816991Y677240D01*
X808636Y676556D02*
X816307D01*
X833120Y678616D02*
X836096Y675640D01*
X847649D01*
X833120Y678616D02*
Y685800D01*
X970563Y680437D02*
X975360Y675640D01*
X984809D01*
X970563Y680437D02*
Y685517D01*
X713220Y309880D02*
X728460Y294640D01*
X985520Y457200D02*
Y467360D01*
X927700Y447700D02*
X928030Y447370D01*
X944550D02*
X944880Y447040D01*
X928030Y447370D02*
X944550D01*
X619760Y707763D02*
Y711200D01*
X911000Y381000D02*
X939800D01*
X849597Y379142D02*
X851455Y381000D01*
X861250Y391000D02*
X867000D01*
X848360Y379142D02*
X849597D01*
X851455Y381000D02*
X867000D01*
X1132586Y431800D02*
X1148080D01*
X1132586Y482600D02*
X1148080D01*
D17*
X889000Y513334D02*
D03*
Y543306D02*
D03*
X787400Y513588D02*
D03*
Y543560D02*
D03*
X939800D02*
D03*
Y513588D02*
D03*
X838200Y309372D02*
D03*
Y279400D02*
D03*
X812800Y309372D02*
D03*
Y279400D02*
D03*
X787400Y309372D02*
D03*
Y279400D02*
D03*
X838200Y513588D02*
D03*
Y543560D02*
D03*
D18*
X888111Y677240D02*
D03*
Y623240D02*
D03*
X920369Y677240D02*
D03*
Y623240D02*
D03*
X778129D02*
D03*
Y677240D02*
D03*
X745871Y623240D02*
D03*
Y677240D02*
D03*
X986409Y623240D02*
D03*
Y677240D02*
D03*
X954151Y623240D02*
D03*
Y677240D02*
D03*
X849249Y623240D02*
D03*
Y677240D02*
D03*
X816991Y623240D02*
D03*
Y677240D02*
D03*
D19*
X955294Y594360D02*
D03*
X985266D02*
D03*
X889254D02*
D03*
X919226D02*
D03*
X818134D02*
D03*
X848106D02*
D03*
X747014D02*
D03*
X776986D02*
D03*
X1132586Y431800D02*
D03*
X1102614D02*
D03*
X858774Y259080D02*
D03*
X888746D02*
D03*
X1102614Y482600D02*
D03*
X1132586D02*
D03*
X969772Y381000D02*
D03*
X939800D02*
D03*
D20*
X927700Y447700D02*
D03*
X901100Y457200D02*
D03*
X927700Y466700D02*
D03*
D21*
X911000Y391000D02*
D03*
Y386000D02*
D03*
Y381000D02*
D03*
Y376000D02*
D03*
Y371000D02*
D03*
X867000D02*
D03*
Y376000D02*
D03*
Y381000D02*
D03*
Y386000D02*
D03*
D22*
Y391000D02*
D03*
D39*
X771714Y437580D02*
D03*
D40*
X889000Y513334D02*
X889326Y513660D01*
Y523566D01*
X889254Y543560D02*
X939800D01*
X894080Y528320D02*
X975360D01*
X889326Y523566D02*
X894080Y528320D01*
X888682Y594931D02*
Y622668D01*
X888111Y623240D02*
X888682Y622668D01*
X918769Y675640D02*
X920369Y677240D01*
X888682Y594931D02*
X889254Y594360D01*
X768985Y568960D02*
X796163D01*
X818134Y590931D01*
X747014D02*
X768985Y568960D01*
X818134Y590931D02*
X840105Y568960D01*
X867283D02*
X886206Y587883D01*
X840105Y568960D02*
X867283D01*
X889254Y590931D02*
X909701Y570484D01*
X934847D02*
X955294Y590931D01*
X909701Y570484D02*
X934847D01*
X787400Y467360D02*
Y513588D01*
X640080Y457200D02*
X777240D01*
X787400Y467360D01*
X777240Y457200D02*
X901100D01*
X939800Y313563D02*
Y381000D01*
X905637Y279400D02*
X939800Y313563D01*
X837946Y513334D02*
X838200Y513588D01*
X817880Y513080D02*
X818134Y513334D01*
X837946D01*
X745871Y623240D02*
X746442Y622668D01*
X747014Y590931D02*
Y594360D01*
X746442Y594931D02*
Y622668D01*
Y594931D02*
X747014Y594360D01*
X985266Y590931D02*
Y594360D01*
X847649Y675640D02*
X849249Y677240D01*
X904240Y685800D02*
X904523Y685517D01*
X984809Y675640D02*
X986409Y677240D01*
X970280Y685800D02*
X970563Y685517D01*
X886206Y587883D02*
X886206D01*
X818134Y590931D02*
Y594360D01*
X886206Y587883D02*
X889254Y590931D01*
Y594360D01*
X955294Y590931D02*
Y594360D01*
Y590931D02*
X975360Y570865D01*
Y528320D02*
Y570865D01*
Y528320D02*
X980440D01*
X954723Y594931D02*
X955294Y594360D01*
X954723Y594931D02*
Y622668D01*
X954151Y623240D02*
X954723Y622668D01*
X817562Y594931D02*
X818134Y594360D01*
X817562Y594931D02*
Y622668D01*
X816991Y623240D02*
X817562Y622668D01*
X990600Y518160D02*
X1158240D01*
X1178560Y497840D01*
X980440Y528320D02*
X990600Y518160D01*
X1178560Y325120D02*
Y497840D01*
X1132840Y279400D02*
X1178560Y325120D01*
X905637Y279400D02*
X1132840D01*
X927700Y459140D02*
Y466700D01*
X888873Y258953D02*
Y262636D01*
X787400Y279400D02*
X812800D01*
X838200D01*
X812800Y228600D02*
Y279400D01*
X640588Y411988D02*
Y432054D01*
X640080Y452120D02*
Y457200D01*
Y452120D02*
X640588Y451612D01*
X640588Y432054D02*
X640588Y432054D01*
Y451612D01*
X640080Y457200D02*
Y482600D01*
X624840Y497840D02*
X640080Y482600D01*
X624840Y396240D02*
X640588Y411988D01*
X609600Y396240D02*
X624840D01*
X609600Y447040D02*
X635000D01*
X639572Y451612D01*
X607340Y421640D02*
X609600D01*
X533400Y347700D02*
X607340Y421640D01*
X561939Y472720D02*
X609320D01*
X609600Y472440D01*
X561659Y473000D02*
X561939Y472720D01*
X609600Y497840D02*
X624840D01*
X619760Y534633D02*
Y579120D01*
X609600Y524473D02*
X619760Y534633D01*
X609600Y523240D02*
Y524473D01*
X614680Y584200D02*
X619760Y579120D01*
X568000Y584200D02*
X614680D01*
X927700Y459140D02*
X929640Y457200D01*
X965200D01*
X985520D02*
X1041400D01*
X965200D02*
X985520D01*
X939800Y497840D02*
Y513588D01*
X969772Y381000D02*
X985520D01*
X888873Y262636D02*
X905637Y279400D01*
X888746Y259080D02*
X888873Y258953D01*
X1041400Y431800D02*
X1102614D01*
X1041400Y482600D02*
X1102614D01*
X858774Y236175D02*
Y259080D01*
Y236175D02*
X863600Y231349D01*
Y228600D02*
Y231349D01*
X888873Y228727D02*
Y258953D01*
Y228727D02*
X889000Y228600D01*
X787400Y543560D02*
X838200D01*
D41*
X713220Y309880D02*
D03*
X648220D02*
D03*
D42*
X609600Y523240D02*
D03*
Y497840D02*
D03*
Y472440D02*
D03*
Y447040D02*
D03*
Y396240D02*
D03*
Y421640D02*
D03*
X848360Y711200D02*
D03*
X822960D02*
D03*
X797560D02*
D03*
X772160D02*
D03*
X746760D02*
D03*
X721360D02*
D03*
X695960D02*
D03*
X670560D02*
D03*
X645160D02*
D03*
X619760D02*
D03*
X939800Y228600D02*
D03*
X965200D02*
D03*
X990600D02*
D03*
X1016000D02*
D03*
X1066800D02*
D03*
X1041400D02*
D03*
X1066800Y711200D02*
D03*
X1041400D02*
D03*
X1016000D02*
D03*
X990600D02*
D03*
X965200D02*
D03*
X939800D02*
D03*
X914400D02*
D03*
X889000D02*
D03*
X711200Y228600D02*
D03*
X736600D02*
D03*
X762000D02*
D03*
X787400D02*
D03*
X812800D02*
D03*
X838200D02*
D03*
X863600D02*
D03*
X889000D02*
D03*
D43*
X1143000Y558800D02*
D03*
X1168400D02*
D03*
X1092200D02*
D03*
X1117600D02*
D03*
X1143000Y635000D02*
D03*
X1168400D02*
D03*
X1092200D02*
D03*
X1117600D02*
D03*
D44*
X505141Y494400D02*
D03*
X552641D02*
D03*
Y420000D02*
D03*
X505141D02*
D03*
D45*
X561659Y441001D02*
D03*
Y457001D02*
D03*
X549622Y449002D02*
D03*
Y465002D02*
D03*
X561659Y473000D02*
D03*
D46*
X568000Y584200D02*
D03*
X508000D02*
D03*
D47*
X543000Y537700D02*
D03*
D48*
X533400Y312700D02*
D03*
Y347700D02*
D03*
D49*
X1041400Y431800D02*
D03*
Y457200D02*
D03*
Y482600D02*
D03*
D50*
X858520Y534670D02*
D03*
X812800Y363220D02*
D03*
X746760Y645160D02*
D03*
X767080Y655320D02*
D03*
X922020Y579120D02*
D03*
X934720Y586740D02*
D03*
X861060Y599440D02*
D03*
X833120Y594360D02*
D03*
X777240Y457200D02*
D03*
X764540Y480060D02*
D03*
X723900D02*
D03*
X736600Y429260D02*
D03*
X751840D02*
D03*
Y447040D02*
D03*
X736600D02*
D03*
X751840Y469900D02*
D03*
X736600D02*
D03*
X965200Y330200D02*
D03*
X914400D02*
D03*
X1023620Y535940D02*
D03*
Y508000D02*
D03*
X1003300Y480060D02*
D03*
Y434340D02*
D03*
X962660Y299720D02*
D03*
X909320D02*
D03*
X850900Y393700D02*
D03*
X866140Y363220D02*
D03*
X927100Y370840D02*
D03*
X955040Y340360D02*
D03*
X952500Y309880D02*
D03*
X1010920Y444500D02*
D03*
Y469900D02*
D03*
Y505460D02*
D03*
Y530860D02*
D03*
X924560Y340360D02*
D03*
X919480Y309880D02*
D03*
X878840Y477520D02*
D03*
X985520Y434340D02*
D03*
X1000760Y594360D02*
D03*
X792480Y584200D02*
D03*
X817880Y513080D02*
D03*
X970280Y685800D02*
D03*
X904240D02*
D03*
X833120D02*
D03*
X762000D02*
D03*
X985520Y482600D02*
D03*
Y467360D02*
D03*
X944880Y434340D02*
D03*
Y447040D02*
D03*
X939800Y497840D02*
D03*
X828040Y363220D02*
D03*
X822960Y350520D02*
D03*
X848360Y379142D02*
D03*
X985520Y381000D02*
D03*
X1148080Y431800D02*
D03*
Y482600D02*
D03*
X797560Y466090D02*
D03*
M02*
