G04*
G04 #@! TF.GenerationSoftware,Altium Limited,Altium Designer,25.4.2 (15)*
G04*
G04 Layer_Color=2752767*
%FSLAX44Y44*%
%MOMM*%
G71*
G04*
G04 #@! TF.SameCoordinates,F20BE116-99DB-4855-A558-1B6AC0D64E7D*
G04*
G04*
G04 #@! TF.FilePolarity,Positive*
G04*
G01*
G75*
%ADD15C,0.1270*%
D15*
X995243Y579557D02*
X1000323Y584637D01*
X1005403Y579557D01*
X1000323Y574477D01*
X995243Y579557D01*
X1005840Y528320D02*
X1010920Y533400D01*
X1016000Y528320D01*
X1010920Y523240D01*
X1005840Y528320D01*
Y508000D02*
X1010920Y513080D01*
X1016000Y508000D01*
X1010920Y502920D01*
X1005840Y508000D01*
Y467360D02*
X1010920Y472440D01*
X1016000Y467360D01*
X1010920Y462280D01*
X1005840Y467360D01*
Y447040D02*
X1010920Y452120D01*
X1016000Y447040D01*
X1010920Y441960D01*
X1005840Y447040D01*
X929640Y594360D02*
X934720Y599440D01*
X939800Y594360D01*
X934720Y589280D01*
X929640Y594360D01*
X858520D02*
X863600Y599440D01*
X868680Y594360D01*
X863600Y589280D01*
X858520Y594360D01*
X787400D02*
X792480Y599440D01*
X797560Y594360D01*
X792480Y589280D01*
X787400Y594360D01*
X965200Y685800D02*
X970280Y690880D01*
X975360Y685800D01*
X970280Y680720D01*
X965200Y685800D01*
X899160D02*
X904240Y690880D01*
X909320Y685800D01*
X904240Y680720D01*
X899160Y685800D01*
X828040D02*
X833120Y690880D01*
X838200Y685800D01*
X833120Y680720D01*
X828040Y685800D01*
X756920D02*
X762000Y690880D01*
X767080Y685800D01*
X762000Y680720D01*
X756920Y685800D01*
X914400Y309880D02*
X919480Y314960D01*
X924560Y309880D01*
X919480Y304800D01*
X914400Y309880D01*
X944880D02*
X949960Y314960D01*
X955040Y309880D01*
X949960Y304800D01*
X944880Y309880D01*
X731520Y447040D02*
X736600Y452120D01*
X741680Y447040D01*
X736600Y441960D01*
X731520Y447040D01*
X746760D02*
X751840Y452120D01*
X756920Y447040D01*
X751840Y441960D01*
X746760Y447040D01*
Y467360D02*
X751840Y472440D01*
X756920Y467360D01*
X751840Y462280D01*
X746760Y467360D01*
X731520D02*
X736600Y472440D01*
X741680Y467360D01*
X736600Y462280D01*
X731520Y467360D01*
X934720Y497840D02*
X939800Y502920D01*
X944880Y497840D01*
X939800Y492760D01*
X934720Y497840D01*
X924560Y340360D02*
X929640Y345440D01*
X934720Y340360D01*
X929640Y335280D01*
X924560Y340360D01*
X944880D02*
X949960Y345440D01*
X955040Y340360D01*
X949960Y335280D01*
X944880Y340360D01*
X919480Y365760D02*
X924560Y370840D01*
X929640Y365760D01*
X924560Y360680D01*
X919480Y365760D01*
X853440Y360680D02*
X858520Y365760D01*
X863600Y360680D01*
X858520Y355600D01*
X853440Y360680D01*
X843280Y379142D02*
X848360Y384222D01*
X853440Y379142D01*
X848360Y374062D01*
X843280Y379142D01*
Y392858D02*
X848360Y397938D01*
X853440Y392858D01*
X848360Y387778D01*
X843280Y392858D01*
X980440Y381000D02*
X985520Y386080D01*
X990600Y381000D01*
X985520Y375920D01*
X980440Y381000D01*
X833120Y497840D02*
X838200Y502920D01*
X843280Y497840D01*
X838200Y492760D01*
X833120Y497840D01*
X1143000Y431800D02*
X1148080Y436880D01*
X1153160Y431800D01*
X1148080Y426720D01*
X1143000Y431800D01*
Y482600D02*
X1148080Y487680D01*
X1153160Y482600D01*
X1148080Y477520D01*
X1143000Y482600D01*
M02*
