M48
;Layer_Color=9474304
;FILE_FORMAT=2:5
INCH,LZ
;TYPE=PLATED
T01F00S00C0.01500
T02F00S00C0.03150
T04F00S00C0.03543
T05F00S00C0.03937
T07F00S00C0.04000
T08F00S00C0.04331
%
T01
X0372Y0176
X0388Y0184
X0302Y018
X0324Y0138
T02
X0216386Y0176772
Y0183071
X0221125Y0186221
Y0179921
Y0173623
T04
X0255205Y0122
X0280795
T05
X021Y012311
Y013689
T07
X043Y022
X044
X045
X046
Y025
X045
X044
X043
T08
X037Y009
X038
X039
X04
X041
X042
X041Y017
Y018
Y019
X035Y009
X034
X033
X032
X031
X03
X029
X028
X024Y0156
Y0166
Y0176
Y0186
Y0196
Y0206
X0244Y028
X0254
X0264
X0274
X0284
X0294
X0304
X0314
X0324
X0334
X035
X036
X037
X038
X039
X04
X041
X042
M30
