G04*
G04 #@! TF.GenerationSoftware,Altium Limited,Altium Designer,25.4.2 (15)*
G04*
G04 Layer_Color=8421504*
%FSLAX44Y44*%
%MOMM*%
G71*
G04*
G04 #@! TF.SameCoordinates,8E47D831-5235-4EDE-A1CE-FBF80302A2F1*
G04*
G04*
G04 #@! TF.FilePolarity,Positive*
G04*
G01*
G75*
%ADD17R,1.8034X1.1176*%
%ADD18R,1.2065X1.9000*%
%ADD19R,1.1176X1.8034*%
G04:AMPARAMS|DCode=20|XSize=1.35mm|YSize=0.59mm|CornerRadius=0.1475mm|HoleSize=0mm|Usage=FLASHONLY|Rotation=180.000|XOffset=0mm|YOffset=0mm|HoleType=Round|Shape=RoundedRectangle|*
%AMROUNDEDRECTD20*
21,1,1.3500,0.2950,0,0,180.0*
21,1,1.0550,0.5900,0,0,180.0*
1,1,0.2950,-0.5275,0.1475*
1,1,0.2950,0.5275,0.1475*
1,1,0.2950,0.5275,-0.1475*
1,1,0.2950,-0.5275,-0.1475*
%
%ADD20ROUNDEDRECTD20*%
%ADD21R,1.4700X0.3000*%
%ADD22R,1.4500X0.3000*%
D17*
X889000Y513334D02*
D03*
Y543306D02*
D03*
X787400Y513588D02*
D03*
Y543560D02*
D03*
X939800D02*
D03*
Y513588D02*
D03*
X838200Y309372D02*
D03*
Y279400D02*
D03*
X812800Y309372D02*
D03*
Y279400D02*
D03*
X787400Y309372D02*
D03*
Y279400D02*
D03*
X838200Y513588D02*
D03*
Y543560D02*
D03*
D18*
X888111Y677240D02*
D03*
Y623240D02*
D03*
X920369Y677240D02*
D03*
Y623240D02*
D03*
X778129D02*
D03*
Y677240D02*
D03*
X745871Y623240D02*
D03*
Y677240D02*
D03*
X986409Y623240D02*
D03*
Y677240D02*
D03*
X954151Y623240D02*
D03*
Y677240D02*
D03*
X849249Y623240D02*
D03*
Y677240D02*
D03*
X816991Y623240D02*
D03*
Y677240D02*
D03*
D19*
X955294Y594360D02*
D03*
X985266D02*
D03*
X889254D02*
D03*
X919226D02*
D03*
X818134D02*
D03*
X848106D02*
D03*
X747014D02*
D03*
X776986D02*
D03*
X1132586Y431800D02*
D03*
X1102614D02*
D03*
X858774Y259080D02*
D03*
X888746D02*
D03*
X1102614Y482600D02*
D03*
X1132586D02*
D03*
X969772Y381000D02*
D03*
X939800D02*
D03*
D20*
X927700Y447700D02*
D03*
X901100Y457200D02*
D03*
X927700Y466700D02*
D03*
D21*
X911000Y391000D02*
D03*
Y386000D02*
D03*
Y381000D02*
D03*
Y376000D02*
D03*
Y371000D02*
D03*
X867000D02*
D03*
Y376000D02*
D03*
Y381000D02*
D03*
Y386000D02*
D03*
D22*
Y391000D02*
D03*
M02*
