G04*
G04 #@! TF.GenerationSoftware,Altium Limited,Altium Designer,25.4.2 (15)*
G04*
G04 Layer_Color=2752767*
%FSLAX44Y44*%
%MOMM*%
G71*
G04*
G04 #@! TF.SameCoordinates,8E47D831-5235-4EDE-A1CE-FBF80302A2F1*
G04*
G04*
G04 #@! TF.FilePolarity,Positive*
G04*
G01*
G75*
%ADD15C,0.1270*%
%ADD57C,0.1693*%
D15*
X708140Y304800D02*
Y314960D01*
X718300D01*
Y304800D01*
X708140D01*
X710172Y306832D02*
Y312928D01*
X716268D01*
Y306832D01*
X710172D01*
X643140Y304800D02*
Y314960D01*
X653300D01*
Y304800D01*
X643140D01*
X645172Y306832D02*
Y312928D01*
X651268D01*
Y306832D01*
X645172D01*
X604520Y518160D02*
Y528320D01*
X614680D01*
Y518160D01*
X604520D01*
Y492760D02*
Y502920D01*
X614680D01*
Y492760D01*
X604520D01*
Y467360D02*
Y477520D01*
X614680D01*
Y467360D01*
X604520D01*
Y441960D02*
Y452120D01*
X614680D01*
Y441960D01*
X604520D01*
Y391160D02*
Y401320D01*
X614680D01*
Y391160D01*
X604520D01*
Y416560D02*
Y426720D01*
X614680D01*
Y416560D01*
X604520D01*
X843280Y706120D02*
Y716280D01*
X853440D01*
Y706120D01*
X843280D01*
X817880D02*
Y716280D01*
X828040D01*
Y706120D01*
X817880D01*
X792480D02*
Y716280D01*
X802640D01*
Y706120D01*
X792480D01*
X767080D02*
Y716280D01*
X777240D01*
Y706120D01*
X767080D01*
X741680D02*
Y716280D01*
X751840D01*
Y706120D01*
X741680D01*
X716280D02*
Y716280D01*
X726440D01*
Y706120D01*
X716280D01*
X690880D02*
Y716280D01*
X701040D01*
Y706120D01*
X690880D01*
X665480D02*
Y716280D01*
X675640D01*
Y706120D01*
X665480D01*
X640080D02*
Y716280D01*
X650240D01*
Y706120D01*
X640080D01*
X614680D02*
Y716280D01*
X624840D01*
Y706120D01*
X614680D01*
X1140460Y556260D02*
Y553720D01*
X1145540D01*
Y556260D01*
X1148080D01*
Y561340D01*
X1145540D01*
Y563880D01*
X1140460D01*
Y561340D01*
X1137920D01*
Y556260D01*
X1140460D01*
X1165860D02*
Y553720D01*
X1170940D01*
Y556260D01*
X1173480D01*
Y561340D01*
X1170940D01*
Y563880D01*
X1165860D01*
Y561340D01*
X1163320D01*
Y556260D01*
X1165860D01*
X1089660D02*
Y553720D01*
X1094740D01*
Y556260D01*
X1097280D01*
Y561340D01*
X1094740D01*
Y563880D01*
X1089660D01*
Y561340D01*
X1087120D01*
Y556260D01*
X1089660D01*
X1115060D02*
Y553720D01*
X1120140D01*
Y556260D01*
X1122680D01*
Y561340D01*
X1120140D01*
Y563880D01*
X1115060D01*
Y561340D01*
X1112520D01*
Y556260D01*
X1115060D01*
X1140460Y632460D02*
Y629920D01*
X1145540D01*
Y632460D01*
X1148080D01*
Y637540D01*
X1145540D01*
Y640080D01*
X1140460D01*
Y637540D01*
X1137920D01*
Y632460D01*
X1140460D01*
X1165860D02*
Y629920D01*
X1170940D01*
Y632460D01*
X1173480D01*
Y637540D01*
X1170940D01*
Y640080D01*
X1165860D01*
Y637540D01*
X1163320D01*
Y632460D01*
X1165860D01*
X1089660D02*
Y629920D01*
X1094740D01*
Y632460D01*
X1097280D01*
Y637540D01*
X1094740D01*
Y640080D01*
X1089660D01*
Y637540D01*
X1087120D01*
Y632460D01*
X1089660D01*
X1115060D02*
Y629920D01*
X1120140D01*
Y632460D01*
X1122680D01*
Y637540D01*
X1120140D01*
Y640080D01*
X1115060D01*
Y637540D01*
X1112520D01*
Y632460D01*
X1115060D01*
X561659Y435921D02*
X556578Y446081D01*
X566739D01*
X561659Y435921D01*
Y451921D02*
X556578Y462081D01*
X566739D01*
X561659Y451921D01*
X549622Y443922D02*
X544542Y454082D01*
X554701D01*
X549622Y443922D01*
Y459922D02*
X544542Y470082D01*
X554701D01*
X549622Y459922D01*
X561659Y467920D02*
X556578Y478080D01*
X566739D01*
X561659Y467920D01*
X934720Y223520D02*
Y233680D01*
X944880D01*
Y223520D01*
X934720D01*
X960120D02*
Y233680D01*
X970280D01*
Y223520D01*
X960120D01*
X985520D02*
Y233680D01*
X995680D01*
Y223520D01*
X985520D01*
X1010920D02*
Y233680D01*
X1021080D01*
Y223520D01*
X1010920D01*
X1061720D02*
Y233680D01*
X1071880D01*
Y223520D01*
X1061720D01*
X1036320D02*
Y233680D01*
X1046480D01*
Y223520D01*
X1036320D01*
X1061720Y706120D02*
Y716280D01*
X1071880D01*
Y706120D01*
X1061720D01*
X1036320D02*
Y716280D01*
X1046480D01*
Y706120D01*
X1036320D01*
X1010920D02*
Y716280D01*
X1021080D01*
Y706120D01*
X1010920D01*
X985520D02*
Y716280D01*
X995680D01*
Y706120D01*
X985520D01*
X960120D02*
Y716280D01*
X970280D01*
Y706120D01*
X960120D01*
X934720D02*
Y716280D01*
X944880D01*
Y706120D01*
X934720D01*
X909320D02*
Y716280D01*
X919480D01*
Y706120D01*
X909320D01*
X883920D02*
Y716280D01*
X894080D01*
Y706120D01*
X883920D01*
X706120Y223520D02*
Y233680D01*
X716280D01*
Y223520D01*
X706120D01*
X731520D02*
Y233680D01*
X741680D01*
Y223520D01*
X731520D01*
X756920D02*
Y233680D01*
X767080D01*
Y223520D01*
X756920D01*
X782320D02*
Y233680D01*
X792480D01*
Y223520D01*
X782320D01*
X807720D02*
Y233680D01*
X817880D01*
Y223520D01*
X807720D01*
X833120D02*
Y233680D01*
X843280D01*
Y223520D01*
X833120D01*
X858520D02*
Y233680D01*
X868680D01*
Y223520D01*
X858520D01*
X883920D02*
Y233680D01*
X894080D01*
Y223520D01*
X883920D01*
X568000Y579120D02*
X570540Y581660D01*
X573080D01*
X570540Y584200D01*
X573080Y586740D01*
X570540D01*
X568000Y589280D01*
X565460Y586740D01*
X562920D01*
X565460Y584200D01*
X562920Y581660D01*
X565460D01*
X568000Y579120D01*
X508000D02*
X510540Y581660D01*
X513080D01*
X510540Y584200D01*
X513080Y586740D01*
X510540D01*
X508000Y589280D01*
X505460Y586740D01*
X502920D01*
X505460Y584200D01*
X502920Y581660D01*
X505460D01*
X508000Y579120D01*
X537920Y532620D02*
X540460Y537700D01*
X537920Y542780D01*
X543000Y540240D01*
X548080Y542780D01*
X545540Y537700D01*
X548080Y532620D01*
X543000Y535160D01*
X537920Y532620D01*
X528320Y307620D02*
X530860D01*
X533400Y310160D01*
X535940Y307620D01*
X538480D01*
Y310160D01*
X535940Y312700D01*
X538480Y315240D01*
Y317780D01*
X535940D01*
X533400Y315240D01*
X530860Y317780D01*
X528320D01*
Y315240D01*
X530860Y312700D01*
X528320Y310160D01*
Y307620D01*
Y342620D02*
X530860D01*
X533400Y345160D01*
X535940Y342620D01*
X538480D01*
Y345160D01*
X535940Y347700D01*
X538480Y350240D01*
Y352780D01*
X535940D01*
X533400Y350240D01*
X530860Y352780D01*
X528320D01*
Y350240D01*
X530860Y347700D01*
X528320Y345160D01*
Y342620D01*
X1036320Y426720D02*
Y436880D01*
X1046480D01*
Y426720D01*
X1036320D01*
Y452120D02*
Y462280D01*
X1046480D01*
Y452120D01*
X1036320D01*
Y477520D02*
Y487680D01*
X1046480D01*
Y477520D01*
X1036320D01*
X853440Y534670D02*
X858520Y539750D01*
X863600Y534670D01*
X858520Y529590D01*
X853440Y534670D01*
X807720Y363220D02*
X812800Y368300D01*
X817880Y363220D01*
X812800Y358140D01*
X807720Y363220D01*
X741680Y645160D02*
X746760Y650240D01*
X751840Y645160D01*
X746760Y640080D01*
X741680Y645160D01*
X762000Y655320D02*
X767080Y660400D01*
X772160Y655320D01*
X767080Y650240D01*
X762000Y655320D01*
X916940Y579120D02*
X922020Y584200D01*
X927100Y579120D01*
X922020Y574040D01*
X916940Y579120D01*
X929640Y586740D02*
X934720Y591820D01*
X939800Y586740D01*
X934720Y581660D01*
X929640Y586740D01*
X855980Y599440D02*
X861060Y604520D01*
X866140Y599440D01*
X861060Y594360D01*
X855980Y599440D01*
X828040Y594360D02*
X833120Y599440D01*
X838200Y594360D01*
X833120Y589280D01*
X828040Y594360D01*
X772160Y457200D02*
X777240Y462280D01*
X782320Y457200D01*
X777240Y452120D01*
X772160Y457200D01*
X759460Y480060D02*
X764540Y485140D01*
X769620Y480060D01*
X764540Y474980D01*
X759460Y480060D01*
X718820D02*
X723900Y485140D01*
X728980Y480060D01*
X723900Y474980D01*
X718820Y480060D01*
X731520Y429260D02*
X736600Y434340D01*
X741680Y429260D01*
X736600Y424180D01*
X731520Y429260D01*
X746760D02*
X751840Y434340D01*
X756920Y429260D01*
X751840Y424180D01*
X746760Y429260D01*
Y447040D02*
X751840Y452120D01*
X756920Y447040D01*
X751840Y441960D01*
X746760Y447040D01*
X731520D02*
X736600Y452120D01*
X741680Y447040D01*
X736600Y441960D01*
X731520Y447040D01*
X746760Y469900D02*
X751840Y474980D01*
X756920Y469900D01*
X751840Y464820D01*
X746760Y469900D01*
X731520D02*
X736600Y474980D01*
X741680Y469900D01*
X736600Y464820D01*
X731520Y469900D01*
X960120Y330200D02*
X965200Y335280D01*
X970280Y330200D01*
X965200Y325120D01*
X960120Y330200D01*
X909320D02*
X914400Y335280D01*
X919480Y330200D01*
X914400Y325120D01*
X909320Y330200D01*
X1018540Y535940D02*
X1023620Y541020D01*
X1028700Y535940D01*
X1023620Y530860D01*
X1018540Y535940D01*
Y508000D02*
X1023620Y513080D01*
X1028700Y508000D01*
X1023620Y502920D01*
X1018540Y508000D01*
X998220Y480060D02*
X1003300Y485140D01*
X1008380Y480060D01*
X1003300Y474980D01*
X998220Y480060D01*
Y434340D02*
X1003300Y439420D01*
X1008380Y434340D01*
X1003300Y429260D01*
X998220Y434340D01*
X957580Y299720D02*
X962660Y304800D01*
X967740Y299720D01*
X962660Y294640D01*
X957580Y299720D01*
X904240D02*
X909320Y304800D01*
X914400Y299720D01*
X909320Y294640D01*
X904240Y299720D01*
X845820Y393700D02*
X850900Y398780D01*
X855980Y393700D01*
X850900Y388620D01*
X845820Y393700D01*
X861060Y363220D02*
X866140Y368300D01*
X871220Y363220D01*
X866140Y358140D01*
X861060Y363220D01*
X922020Y370840D02*
X927100Y375920D01*
X932180Y370840D01*
X927100Y365760D01*
X922020Y370840D01*
X949960Y340360D02*
X955040Y345440D01*
X960120Y340360D01*
X955040Y335280D01*
X949960Y340360D01*
X947420Y309880D02*
X952500Y314960D01*
X957580Y309880D01*
X952500Y304800D01*
X947420Y309880D01*
X1005840Y444500D02*
X1010920Y449580D01*
X1016000Y444500D01*
X1010920Y439420D01*
X1005840Y444500D01*
Y469900D02*
X1010920Y474980D01*
X1016000Y469900D01*
X1010920Y464820D01*
X1005840Y469900D01*
Y505460D02*
X1010920Y510540D01*
X1016000Y505460D01*
X1010920Y500380D01*
X1005840Y505460D01*
Y530860D02*
X1010920Y535940D01*
X1016000Y530860D01*
X1010920Y525780D01*
X1005840Y530860D01*
X919480Y340360D02*
X924560Y345440D01*
X929640Y340360D01*
X924560Y335280D01*
X919480Y340360D01*
X914400Y309880D02*
X919480Y314960D01*
X924560Y309880D01*
X919480Y304800D01*
X914400Y309880D01*
X873760Y477520D02*
X878840Y482600D01*
X883920Y477520D01*
X878840Y472440D01*
X873760Y477520D01*
X980440Y434340D02*
X985520Y439420D01*
X990600Y434340D01*
X985520Y429260D01*
X980440Y434340D01*
X995680Y594360D02*
X1000760Y599440D01*
X1005840Y594360D01*
X1000760Y589280D01*
X995680Y594360D01*
X787400Y584200D02*
X792480Y589280D01*
X797560Y584200D01*
X792480Y579120D01*
X787400Y584200D01*
X812800Y513080D02*
X817880Y518160D01*
X822960Y513080D01*
X817880Y508000D01*
X812800Y513080D01*
X965200Y685800D02*
X970280Y690880D01*
X975360Y685800D01*
X970280Y680720D01*
X965200Y685800D01*
X899160D02*
X904240Y690880D01*
X909320Y685800D01*
X904240Y680720D01*
X899160Y685800D01*
X828040D02*
X833120Y690880D01*
X838200Y685800D01*
X833120Y680720D01*
X828040Y685800D01*
X756920D02*
X762000Y690880D01*
X767080Y685800D01*
X762000Y680720D01*
X756920Y685800D01*
X980440Y482600D02*
X985520Y487680D01*
X990600Y482600D01*
X985520Y477520D01*
X980440Y482600D01*
Y467360D02*
X985520Y472440D01*
X990600Y467360D01*
X985520Y462280D01*
X980440Y467360D01*
X939800Y434340D02*
X944880Y439420D01*
X949960Y434340D01*
X944880Y429260D01*
X939800Y434340D01*
Y447040D02*
X944880Y452120D01*
X949960Y447040D01*
X944880Y441960D01*
X939800Y447040D01*
X934720Y497840D02*
X939800Y502920D01*
X944880Y497840D01*
X939800Y492760D01*
X934720Y497840D01*
X822960Y363220D02*
X828040Y368300D01*
X833120Y363220D01*
X828040Y358140D01*
X822960Y363220D01*
X817880Y350520D02*
X822960Y355600D01*
X828040Y350520D01*
X822960Y345440D01*
X817880Y350520D01*
X843280Y379142D02*
X848360Y384222D01*
X853440Y379142D01*
X848360Y374062D01*
X843280Y379142D01*
X980440Y381000D02*
X985520Y386080D01*
X990600Y381000D01*
X985520Y375920D01*
X980440Y381000D01*
X1143000Y431800D02*
X1148080Y436880D01*
X1153160Y431800D01*
X1148080Y426720D01*
X1143000Y431800D01*
Y482600D02*
X1148080Y487680D01*
X1153160Y482600D01*
X1148080Y477520D01*
X1143000Y482600D01*
X792480Y466090D02*
X797560Y471170D01*
X802640Y466090D01*
X797560Y461010D01*
X792480Y466090D01*
D57*
X510221Y494400D02*
G03*
X510221Y494400I-5080J0D01*
G01*
X557721D02*
G03*
X557721Y494400I-5080J0D01*
G01*
Y420000D02*
G03*
X557721Y420000I-5080J0D01*
G01*
X510221D02*
G03*
X510221Y420000I-5080J0D01*
G01*
M02*
