G04*
G04 #@! TF.GenerationSoftware,Altium Limited,Altium Designer,25.4.2 (15)*
G04*
G04 Layer_Color=2752767*
%FSLAX44Y44*%
%MOMM*%
G71*
G04*
G04 #@! TF.SameCoordinates,F20BE116-99DB-4855-A558-1B6AC0D64E7D*
G04*
G04*
G04 #@! TF.FilePolarity,Positive*
G04*
G01*
G75*
%ADD15C,0.1270*%
%ADD57C,0.1693*%
D15*
X708140Y304800D02*
Y314960D01*
X718300D01*
Y304800D01*
X708140D01*
X710172Y306832D02*
Y312928D01*
X716268D01*
Y306832D01*
X710172D01*
X643140Y304800D02*
Y314960D01*
X653300D01*
Y304800D01*
X643140D01*
X645172Y306832D02*
Y312928D01*
X651268D01*
Y306832D01*
X645172D01*
X604520Y518160D02*
Y528320D01*
X614680D01*
Y518160D01*
X604520D01*
Y492760D02*
Y502920D01*
X614680D01*
Y492760D01*
X604520D01*
Y467360D02*
Y477520D01*
X614680D01*
Y467360D01*
X604520D01*
Y441960D02*
Y452120D01*
X614680D01*
Y441960D01*
X604520D01*
Y391160D02*
Y401320D01*
X614680D01*
Y391160D01*
X604520D01*
Y416560D02*
Y426720D01*
X614680D01*
Y416560D01*
X604520D01*
X843280Y706120D02*
Y716280D01*
X853440D01*
Y706120D01*
X843280D01*
X817880D02*
Y716280D01*
X828040D01*
Y706120D01*
X817880D01*
X792480D02*
Y716280D01*
X802640D01*
Y706120D01*
X792480D01*
X767080D02*
Y716280D01*
X777240D01*
Y706120D01*
X767080D01*
X741680D02*
Y716280D01*
X751840D01*
Y706120D01*
X741680D01*
X716280D02*
Y716280D01*
X726440D01*
Y706120D01*
X716280D01*
X690880D02*
Y716280D01*
X701040D01*
Y706120D01*
X690880D01*
X665480D02*
Y716280D01*
X675640D01*
Y706120D01*
X665480D01*
X640080D02*
Y716280D01*
X650240D01*
Y706120D01*
X640080D01*
X614680D02*
Y716280D01*
X624840D01*
Y706120D01*
X614680D01*
X1140460Y556260D02*
Y553720D01*
X1145540D01*
Y556260D01*
X1148080D01*
Y561340D01*
X1145540D01*
Y563880D01*
X1140460D01*
Y561340D01*
X1137920D01*
Y556260D01*
X1140460D01*
X1165860D02*
Y553720D01*
X1170940D01*
Y556260D01*
X1173480D01*
Y561340D01*
X1170940D01*
Y563880D01*
X1165860D01*
Y561340D01*
X1163320D01*
Y556260D01*
X1165860D01*
X1089660D02*
Y553720D01*
X1094740D01*
Y556260D01*
X1097280D01*
Y561340D01*
X1094740D01*
Y563880D01*
X1089660D01*
Y561340D01*
X1087120D01*
Y556260D01*
X1089660D01*
X1115060D02*
Y553720D01*
X1120140D01*
Y556260D01*
X1122680D01*
Y561340D01*
X1120140D01*
Y563880D01*
X1115060D01*
Y561340D01*
X1112520D01*
Y556260D01*
X1115060D01*
X1140460Y632460D02*
Y629920D01*
X1145540D01*
Y632460D01*
X1148080D01*
Y637540D01*
X1145540D01*
Y640080D01*
X1140460D01*
Y637540D01*
X1137920D01*
Y632460D01*
X1140460D01*
X1165860D02*
Y629920D01*
X1170940D01*
Y632460D01*
X1173480D01*
Y637540D01*
X1170940D01*
Y640080D01*
X1165860D01*
Y637540D01*
X1163320D01*
Y632460D01*
X1165860D01*
X1089660D02*
Y629920D01*
X1094740D01*
Y632460D01*
X1097280D01*
Y637540D01*
X1094740D01*
Y640080D01*
X1089660D01*
Y637540D01*
X1087120D01*
Y632460D01*
X1089660D01*
X1115060D02*
Y629920D01*
X1120140D01*
Y632460D01*
X1122680D01*
Y637540D01*
X1120140D01*
Y640080D01*
X1115060D01*
Y637540D01*
X1112520D01*
Y632460D01*
X1115060D01*
X561659Y435921D02*
X556578Y446081D01*
X566739D01*
X561659Y435921D01*
Y451921D02*
X556578Y462081D01*
X566739D01*
X561659Y451921D01*
X549622Y443922D02*
X544542Y454082D01*
X554701D01*
X549622Y443922D01*
Y459922D02*
X544542Y470082D01*
X554701D01*
X549622Y459922D01*
X561659Y467920D02*
X556578Y478080D01*
X566739D01*
X561659Y467920D01*
X934720Y223520D02*
Y233680D01*
X944880D01*
Y223520D01*
X934720D01*
X960120D02*
Y233680D01*
X970280D01*
Y223520D01*
X960120D01*
X985520D02*
Y233680D01*
X995680D01*
Y223520D01*
X985520D01*
X1010920D02*
Y233680D01*
X1021080D01*
Y223520D01*
X1010920D01*
X1061720D02*
Y233680D01*
X1071880D01*
Y223520D01*
X1061720D01*
X1036320D02*
Y233680D01*
X1046480D01*
Y223520D01*
X1036320D01*
X1061720Y706120D02*
Y716280D01*
X1071880D01*
Y706120D01*
X1061720D01*
X1036320D02*
Y716280D01*
X1046480D01*
Y706120D01*
X1036320D01*
X1010920D02*
Y716280D01*
X1021080D01*
Y706120D01*
X1010920D01*
X985520D02*
Y716280D01*
X995680D01*
Y706120D01*
X985520D01*
X960120D02*
Y716280D01*
X970280D01*
Y706120D01*
X960120D01*
X934720D02*
Y716280D01*
X944880D01*
Y706120D01*
X934720D01*
X909320D02*
Y716280D01*
X919480D01*
Y706120D01*
X909320D01*
X883920D02*
Y716280D01*
X894080D01*
Y706120D01*
X883920D01*
X706120Y223520D02*
Y233680D01*
X716280D01*
Y223520D01*
X706120D01*
X731520D02*
Y233680D01*
X741680D01*
Y223520D01*
X731520D01*
X756920D02*
Y233680D01*
X767080D01*
Y223520D01*
X756920D01*
X782320D02*
Y233680D01*
X792480D01*
Y223520D01*
X782320D01*
X807720D02*
Y233680D01*
X817880D01*
Y223520D01*
X807720D01*
X833120D02*
Y233680D01*
X843280D01*
Y223520D01*
X833120D01*
X858520D02*
Y233680D01*
X868680D01*
Y223520D01*
X858520D01*
X883920D02*
Y233680D01*
X894080D01*
Y223520D01*
X883920D01*
X568000Y579120D02*
X570540Y581660D01*
X573080D01*
X570540Y584200D01*
X573080Y586740D01*
X570540D01*
X568000Y589280D01*
X565460Y586740D01*
X562920D01*
X565460Y584200D01*
X562920Y581660D01*
X565460D01*
X568000Y579120D01*
X508000D02*
X510540Y581660D01*
X513080D01*
X510540Y584200D01*
X513080Y586740D01*
X510540D01*
X508000Y589280D01*
X505460Y586740D01*
X502920D01*
X505460Y584200D01*
X502920Y581660D01*
X505460D01*
X508000Y579120D01*
X537920Y532620D02*
X540460Y537700D01*
X537920Y542780D01*
X543000Y540240D01*
X548080Y542780D01*
X545540Y537700D01*
X548080Y532620D01*
X543000Y535160D01*
X537920Y532620D01*
X528320Y307620D02*
X530860D01*
X533400Y310160D01*
X535940Y307620D01*
X538480D01*
Y310160D01*
X535940Y312700D01*
X538480Y315240D01*
Y317780D01*
X535940D01*
X533400Y315240D01*
X530860Y317780D01*
X528320D01*
Y315240D01*
X530860Y312700D01*
X528320Y310160D01*
Y307620D01*
Y342620D02*
X530860D01*
X533400Y345160D01*
X535940Y342620D01*
X538480D01*
Y345160D01*
X535940Y347700D01*
X538480Y350240D01*
Y352780D01*
X535940D01*
X533400Y350240D01*
X530860Y352780D01*
X528320D01*
Y350240D01*
X530860Y347700D01*
X528320Y345160D01*
Y342620D01*
X1036320Y426720D02*
Y436880D01*
X1046480D01*
Y426720D01*
X1036320D01*
Y452120D02*
Y462280D01*
X1046480D01*
Y452120D01*
X1036320D01*
Y477520D02*
Y487680D01*
X1046480D01*
Y477520D01*
X1036320D01*
X980440Y467360D02*
X985520Y472440D01*
X990600Y467360D01*
X985520Y462280D01*
X980440Y467360D01*
X939800Y447040D02*
X944880Y452120D01*
X949960Y447040D01*
X944880Y441960D01*
X939800Y447040D01*
X762000Y457200D02*
X767080Y462280D01*
X772160Y457200D01*
X767080Y452120D01*
X762000Y457200D01*
X817880Y350520D02*
X822960Y355600D01*
X828040Y350520D01*
X822960Y345440D01*
X817880Y350520D01*
D57*
X510221Y494400D02*
G03*
X510221Y494400I-5080J0D01*
G01*
X557721D02*
G03*
X557721Y494400I-5080J0D01*
G01*
Y420000D02*
G03*
X557721Y420000I-5080J0D01*
G01*
X510221D02*
G03*
X510221Y420000I-5080J0D01*
G01*
M02*
