G04*
G04 #@! TF.GenerationSoftware,Altium Limited,Altium Designer,25.4.2 (15)*
G04*
G04 Layer_Color=16711935*
%FSLAX44Y44*%
%MOMM*%
G71*
G04*
G04 #@! TF.SameCoordinates,8E47D831-5235-4EDE-A1CE-FBF80302A2F1*
G04*
G04*
G04 #@! TF.FilePolarity,Negative*
G04*
G01*
G75*
%ADD23R,2.0066X1.3208*%
%ADD25R,1.3208X2.0066*%
%ADD29C,1.8032*%
%ADD30C,1.7272*%
%ADD31C,1.9812*%
%ADD32O,2.6032X1.4032*%
%ADD33C,1.4032*%
%ADD34O,2.2032X4.0032*%
%ADD35O,3.5032X2.0032*%
%ADD36C,2.2032*%
%ADD37C,1.8532*%
%ADD38C,0.9144*%
G04:AMPARAMS|DCode=53|XSize=1.8132mm|YSize=0.7932mm|CornerRadius=0.1754mm|HoleSize=0mm|Usage=FLASHONLY|Rotation=180.000|XOffset=0mm|YOffset=0mm|HoleType=Round|Shape=RoundedRectangle|*
%AMROUNDEDRECTD53*
21,1,1.8132,0.4425,0,0,180.0*
21,1,1.4625,0.7932,0,0,180.0*
1,1,0.3507,-0.7313,0.2213*
1,1,0.3507,0.7313,0.2213*
1,1,0.3507,0.7313,-0.2213*
1,1,0.3507,-0.7313,-0.2213*
%
%ADD53ROUNDEDRECTD53*%
%ADD54R,1.7532X0.8032*%
D23*
X645160Y660654D02*
D03*
Y690626D02*
D03*
X619760D02*
D03*
Y660654D02*
D03*
D25*
X782828Y482600D02*
D03*
X812800D02*
D03*
X782828Y381000D02*
D03*
X812800D02*
D03*
X782828Y431800D02*
D03*
X812800D02*
D03*
X863854Y553720D02*
D03*
X893826D02*
D03*
Y477520D02*
D03*
X863854D02*
D03*
D29*
X713220Y309880D02*
D03*
X648220D02*
D03*
D30*
X609600Y523240D02*
D03*
Y497840D02*
D03*
Y472440D02*
D03*
Y447040D02*
D03*
Y396240D02*
D03*
Y421640D02*
D03*
X848360Y711200D02*
D03*
X822960D02*
D03*
X797560D02*
D03*
X772160D02*
D03*
X746760D02*
D03*
X721360D02*
D03*
X695960D02*
D03*
X670560D02*
D03*
X645160D02*
D03*
X619760D02*
D03*
X939800Y228600D02*
D03*
X965200D02*
D03*
X990600D02*
D03*
X1016000D02*
D03*
X1066800D02*
D03*
X1041400D02*
D03*
X1066800Y711200D02*
D03*
X1041400D02*
D03*
X1016000D02*
D03*
X990600D02*
D03*
X965200D02*
D03*
X939800D02*
D03*
X914400D02*
D03*
X889000D02*
D03*
X711200Y228600D02*
D03*
X736600D02*
D03*
X762000D02*
D03*
X787400D02*
D03*
X812800D02*
D03*
X838200D02*
D03*
X863600D02*
D03*
X889000D02*
D03*
D31*
X1143000Y558800D02*
D03*
X1168400D02*
D03*
X1092200D02*
D03*
X1117600D02*
D03*
X1143000Y635000D02*
D03*
X1168400D02*
D03*
X1092200D02*
D03*
X1117600D02*
D03*
D32*
X505141Y494400D02*
D03*
X552641D02*
D03*
Y420000D02*
D03*
X505141D02*
D03*
D33*
X561659Y441001D02*
D03*
Y457001D02*
D03*
X549622Y449002D02*
D03*
Y465002D02*
D03*
X561659Y473000D02*
D03*
D34*
X568000Y584200D02*
D03*
X508000D02*
D03*
D35*
X543000Y537700D02*
D03*
D36*
X533400Y312700D02*
D03*
Y347700D02*
D03*
D37*
X1041400Y431800D02*
D03*
Y457200D02*
D03*
Y482600D02*
D03*
D38*
X858520Y534670D02*
D03*
X812800Y363220D02*
D03*
X746760Y645160D02*
D03*
X767080Y655320D02*
D03*
X922020Y579120D02*
D03*
X934720Y586740D02*
D03*
X861060Y599440D02*
D03*
X833120Y594360D02*
D03*
X777240Y457200D02*
D03*
X764540Y480060D02*
D03*
X723900D02*
D03*
X736600Y429260D02*
D03*
X751840D02*
D03*
Y447040D02*
D03*
X736600D02*
D03*
X751840Y469900D02*
D03*
X736600D02*
D03*
X965200Y330200D02*
D03*
X914400D02*
D03*
X1023620Y535940D02*
D03*
Y508000D02*
D03*
X1003300Y480060D02*
D03*
Y434340D02*
D03*
X962660Y299720D02*
D03*
X909320D02*
D03*
X850900Y393700D02*
D03*
X866140Y363220D02*
D03*
X927100Y370840D02*
D03*
X955040Y340360D02*
D03*
X952500Y309880D02*
D03*
X1010920Y444500D02*
D03*
Y469900D02*
D03*
Y505460D02*
D03*
Y530860D02*
D03*
X924560Y340360D02*
D03*
X919480Y309880D02*
D03*
X878840Y477520D02*
D03*
X985520Y434340D02*
D03*
X1000760Y594360D02*
D03*
X792480Y584200D02*
D03*
X817880Y513080D02*
D03*
X970280Y685800D02*
D03*
X904240D02*
D03*
X833120D02*
D03*
X762000D02*
D03*
X985520Y482600D02*
D03*
Y467360D02*
D03*
X944880Y434340D02*
D03*
Y447040D02*
D03*
X939800Y497840D02*
D03*
X828040Y363220D02*
D03*
X822960Y350520D02*
D03*
X848360Y379142D02*
D03*
X985520Y381000D02*
D03*
X1148080Y431800D02*
D03*
Y482600D02*
D03*
X797560Y466090D02*
D03*
D53*
X895370Y593700D02*
D03*
Y584200D02*
D03*
Y574700D02*
D03*
X872470D02*
D03*
Y584200D02*
D03*
Y593700D02*
D03*
D54*
X966800Y476250D02*
D03*
Y463550D02*
D03*
Y450850D02*
D03*
Y438150D02*
D03*
X912800Y476250D02*
D03*
Y463550D02*
D03*
Y450850D02*
D03*
Y438150D02*
D03*
M02*
