G04*
G04 #@! TF.GenerationSoftware,Altium Limited,Altium Designer,25.4.2 (15)*
G04*
G04 Layer_Color=16711935*
%FSLAX44Y44*%
%MOMM*%
G71*
G04*
G04 #@! TF.SameCoordinates,F20BE116-99DB-4855-A558-1B6AC0D64E7D*
G04*
G04*
G04 #@! TF.FilePolarity,Negative*
G04*
G01*
G75*
%ADD23R,1.3208X2.0066*%
%ADD25R,2.0066X1.3208*%
%ADD29C,1.8032*%
%ADD30C,1.7272*%
%ADD31C,1.9812*%
%ADD32O,2.6032X1.4032*%
%ADD33C,1.4032*%
%ADD34O,2.2032X4.0032*%
%ADD35O,3.5032X2.0032*%
%ADD36C,2.2032*%
%ADD37C,1.8532*%
%ADD38C,0.9144*%
%ADD53R,1.7532X0.8032*%
G04:AMPARAMS|DCode=54|XSize=1.8132mm|YSize=0.7932mm|CornerRadius=0.1754mm|HoleSize=0mm|Usage=FLASHONLY|Rotation=0.000|XOffset=0mm|YOffset=0mm|HoleType=Round|Shape=RoundedRectangle|*
%AMROUNDEDRECTD54*
21,1,1.8132,0.4425,0,0,0.0*
21,1,1.4625,0.7932,0,0,0.0*
1,1,0.3507,0.7313,-0.2213*
1,1,0.3507,-0.7313,-0.2213*
1,1,0.3507,-0.7313,0.2213*
1,1,0.3507,0.7313,0.2213*
%
%ADD54ROUNDEDRECTD54*%
D23*
X863854Y553720D02*
D03*
X893826D02*
D03*
Y477520D02*
D03*
X863854D02*
D03*
X812800Y431800D02*
D03*
X782828D02*
D03*
X812800Y381000D02*
D03*
X782828D02*
D03*
X812800Y482600D02*
D03*
X782828D02*
D03*
D25*
X645160Y660654D02*
D03*
Y690626D02*
D03*
X619760D02*
D03*
Y660654D02*
D03*
D29*
X713220Y309880D02*
D03*
X648220D02*
D03*
D30*
X609600Y523240D02*
D03*
Y497840D02*
D03*
Y472440D02*
D03*
Y447040D02*
D03*
Y396240D02*
D03*
Y421640D02*
D03*
X848360Y711200D02*
D03*
X822960D02*
D03*
X797560D02*
D03*
X772160D02*
D03*
X746760D02*
D03*
X721360D02*
D03*
X695960D02*
D03*
X670560D02*
D03*
X645160D02*
D03*
X619760D02*
D03*
X939800Y228600D02*
D03*
X965200D02*
D03*
X990600D02*
D03*
X1016000D02*
D03*
X1066800D02*
D03*
X1041400D02*
D03*
X1066800Y711200D02*
D03*
X1041400D02*
D03*
X1016000D02*
D03*
X990600D02*
D03*
X965200D02*
D03*
X939800D02*
D03*
X914400D02*
D03*
X889000D02*
D03*
X711200Y228600D02*
D03*
X736600D02*
D03*
X762000D02*
D03*
X787400D02*
D03*
X812800D02*
D03*
X838200D02*
D03*
X863600D02*
D03*
X889000D02*
D03*
D31*
X1143000Y558800D02*
D03*
X1168400D02*
D03*
X1092200D02*
D03*
X1117600D02*
D03*
X1143000Y635000D02*
D03*
X1168400D02*
D03*
X1092200D02*
D03*
X1117600D02*
D03*
D32*
X505141Y494400D02*
D03*
X552641D02*
D03*
Y420000D02*
D03*
X505141D02*
D03*
D33*
X561659Y441001D02*
D03*
Y457001D02*
D03*
X549622Y449002D02*
D03*
Y465002D02*
D03*
X561659Y473000D02*
D03*
D34*
X568000Y584200D02*
D03*
X508000D02*
D03*
D35*
X543000Y537700D02*
D03*
D36*
X533400Y312700D02*
D03*
Y347700D02*
D03*
D37*
X1041400Y431800D02*
D03*
Y457200D02*
D03*
Y482600D02*
D03*
D38*
X848106Y553720D02*
D03*
X985520Y467360D02*
D03*
X944880Y447040D02*
D03*
X767080Y457200D02*
D03*
X822960Y350520D02*
D03*
X970280Y426720D02*
D03*
X812800Y365760D02*
D03*
X807720Y619760D02*
D03*
X782761Y610041D02*
D03*
X853770Y594030D02*
D03*
X914400Y584200D02*
D03*
X863600Y457200D02*
D03*
D53*
X966800Y476250D02*
D03*
Y463550D02*
D03*
Y450850D02*
D03*
Y438150D02*
D03*
X912800Y476250D02*
D03*
Y463550D02*
D03*
Y450850D02*
D03*
Y438150D02*
D03*
D54*
X872470Y593700D02*
D03*
Y584200D02*
D03*
Y574700D02*
D03*
X895370D02*
D03*
Y584200D02*
D03*
Y593700D02*
D03*
M02*
