G04*
G04 #@! TF.GenerationSoftware,Altium Limited,Altium Designer,25.4.2 (15)*
G04*
G04 Layer_Physical_Order=2*
G04 Layer_Color=36540*
%FSLAX44Y44*%
%MOMM*%
G71*
G04*
G04 #@! TF.SameCoordinates,8E47D831-5235-4EDE-A1CE-FBF80302A2F1*
G04*
G04*
G04 #@! TF.FilePolarity,Positive*
G04*
G01*
G75*
%ADD41C,1.6000*%
%ADD42C,1.5240*%
%ADD43C,1.7780*%
%ADD44O,2.4000X1.2000*%
%ADD45C,1.2000*%
%ADD46O,2.0000X3.8000*%
%ADD47O,3.3000X1.8000*%
%ADD48C,2.0000*%
%ADD49C,1.6500*%
%ADD50C,0.7112*%
G36*
X620121Y731420D02*
X621645Y731420D01*
X1124981Y731420D01*
X1126503Y731420D01*
X1126504Y731420D01*
X1126505Y731420D01*
X1126505Y731420D01*
X1128027Y731425D01*
X1135231Y731071D01*
X1143870Y729790D01*
X1152342Y727668D01*
X1160565Y724725D01*
X1168459Y720991D01*
X1175950Y716502D01*
X1182965Y711299D01*
X1189436Y705434D01*
X1195301Y698963D01*
X1200503Y691948D01*
X1204993Y684458D01*
X1208727Y676563D01*
X1211669Y668340D01*
X1212037Y666872D01*
X1211996Y666860D01*
X1215134Y655968D01*
X1221606Y629873D01*
X1227097Y603554D01*
X1231601Y577048D01*
X1235110Y550392D01*
X1237620Y523624D01*
X1239128Y496780D01*
X1239630Y469899D01*
X1239128Y443018D01*
X1237620Y416174D01*
X1235110Y389406D01*
X1231601Y362750D01*
X1227097Y336244D01*
X1221606Y309925D01*
X1215134Y283829D01*
X1211997Y272940D01*
X1212038Y272928D01*
X1211671Y271463D01*
X1208728Y263240D01*
X1204994Y255345D01*
X1200504Y247853D01*
X1195301Y240838D01*
X1189436Y234367D01*
X1182964Y228501D01*
X1175949Y223299D01*
X1168458Y218809D01*
X1160563Y215074D01*
X1152339Y212132D01*
X1143867Y210010D01*
X1135228Y208728D01*
X1126826Y208316D01*
X1126505Y208379D01*
X621639Y208379D01*
X620121Y208379D01*
X618607Y208356D01*
X608906Y208737D01*
X597760Y210056D01*
X586751Y212246D01*
X575949Y215293D01*
X565418Y219178D01*
X555225Y223877D01*
X545432Y229361D01*
X536100Y235597D01*
X527285Y242546D01*
X519299Y249929D01*
X519102Y250223D01*
X504223Y265102D01*
X503925Y265301D01*
X499307Y270567D01*
X495220Y276683D01*
X491967Y283280D01*
X489603Y290245D01*
X488168Y297460D01*
X487786Y303279D01*
X487780Y304800D01*
X487780Y306324D01*
X487779Y635000D01*
X487710Y635351D01*
X488168Y642340D01*
X489603Y649554D01*
X491967Y656520D01*
X495220Y663117D01*
X499307Y669233D01*
X503152Y673617D01*
X504223Y674698D01*
X504223D01*
X505285Y675760D01*
X519102Y689577D01*
X519102Y689577D01*
Y689577D01*
X520156Y690664D01*
X527286Y697255D01*
X536100Y704203D01*
X545432Y710439D01*
X555225Y715923D01*
X565418Y720622D01*
X575948Y724507D01*
X586751Y727553D01*
X597759Y729743D01*
X608905Y731062D01*
X618606Y731443D01*
X620121Y731420D01*
D02*
G37*
%LPC*%
G36*
X697298Y721360D02*
X697230D01*
Y712470D01*
X706120D01*
Y712538D01*
X705428Y715122D01*
X704090Y717438D01*
X702198Y719330D01*
X699882Y720668D01*
X697298Y721360D01*
D02*
G37*
G36*
X694690D02*
X694622D01*
X692038Y720668D01*
X689722Y719330D01*
X687830Y717438D01*
X686492Y715122D01*
X685800Y712538D01*
Y712470D01*
X694690D01*
Y721360D01*
D02*
G37*
G36*
X1068138D02*
X1065462D01*
X1062878Y720668D01*
X1060562Y719330D01*
X1058670Y717438D01*
X1057332Y715122D01*
X1056640Y712538D01*
Y709862D01*
X1057332Y707278D01*
X1058670Y704962D01*
X1060562Y703070D01*
X1062878Y701732D01*
X1065462Y701040D01*
X1068138D01*
X1070722Y701732D01*
X1073038Y703070D01*
X1074930Y704962D01*
X1076268Y707278D01*
X1076960Y709862D01*
Y712538D01*
X1076268Y715122D01*
X1074930Y717438D01*
X1073038Y719330D01*
X1070722Y720668D01*
X1068138Y721360D01*
D02*
G37*
G36*
X1042738D02*
X1040062D01*
X1037478Y720668D01*
X1035162Y719330D01*
X1033270Y717438D01*
X1031932Y715122D01*
X1031240Y712538D01*
Y709862D01*
X1031932Y707278D01*
X1033270Y704962D01*
X1035162Y703070D01*
X1037478Y701732D01*
X1040062Y701040D01*
X1042738D01*
X1045322Y701732D01*
X1047638Y703070D01*
X1049530Y704962D01*
X1050868Y707278D01*
X1051560Y709862D01*
Y712538D01*
X1050868Y715122D01*
X1049530Y717438D01*
X1047638Y719330D01*
X1045322Y720668D01*
X1042738Y721360D01*
D02*
G37*
G36*
X1017338D02*
X1014662D01*
X1012078Y720668D01*
X1009762Y719330D01*
X1007870Y717438D01*
X1006532Y715122D01*
X1005840Y712538D01*
Y709862D01*
X1006532Y707278D01*
X1007870Y704962D01*
X1009762Y703070D01*
X1012078Y701732D01*
X1014662Y701040D01*
X1017338D01*
X1019922Y701732D01*
X1022238Y703070D01*
X1024130Y704962D01*
X1025468Y707278D01*
X1026160Y709862D01*
Y712538D01*
X1025468Y715122D01*
X1024130Y717438D01*
X1022238Y719330D01*
X1019922Y720668D01*
X1017338Y721360D01*
D02*
G37*
G36*
X991938D02*
X989262D01*
X986678Y720668D01*
X984362Y719330D01*
X982470Y717438D01*
X981132Y715122D01*
X980440Y712538D01*
Y709862D01*
X981132Y707278D01*
X982470Y704962D01*
X984362Y703070D01*
X986678Y701732D01*
X989262Y701040D01*
X991938D01*
X994522Y701732D01*
X996838Y703070D01*
X998730Y704962D01*
X1000068Y707278D01*
X1000760Y709862D01*
Y712538D01*
X1000068Y715122D01*
X998730Y717438D01*
X996838Y719330D01*
X994522Y720668D01*
X991938Y721360D01*
D02*
G37*
G36*
X966538D02*
X963862D01*
X961278Y720668D01*
X958962Y719330D01*
X957070Y717438D01*
X955732Y715122D01*
X955040Y712538D01*
Y709862D01*
X955732Y707278D01*
X957070Y704962D01*
X958962Y703070D01*
X961278Y701732D01*
X963862Y701040D01*
X966538D01*
X969122Y701732D01*
X971438Y703070D01*
X973330Y704962D01*
X974668Y707278D01*
X975360Y709862D01*
Y712538D01*
X974668Y715122D01*
X973330Y717438D01*
X971438Y719330D01*
X969122Y720668D01*
X966538Y721360D01*
D02*
G37*
G36*
X941138D02*
X938462D01*
X935878Y720668D01*
X933562Y719330D01*
X931670Y717438D01*
X930332Y715122D01*
X929640Y712538D01*
Y709862D01*
X930332Y707278D01*
X931670Y704962D01*
X933562Y703070D01*
X935878Y701732D01*
X938462Y701040D01*
X941138D01*
X943722Y701732D01*
X946038Y703070D01*
X947930Y704962D01*
X949268Y707278D01*
X949960Y709862D01*
Y712538D01*
X949268Y715122D01*
X947930Y717438D01*
X946038Y719330D01*
X943722Y720668D01*
X941138Y721360D01*
D02*
G37*
G36*
X915738D02*
X913062D01*
X910478Y720668D01*
X908162Y719330D01*
X906270Y717438D01*
X904932Y715122D01*
X904240Y712538D01*
Y709862D01*
X904932Y707278D01*
X906270Y704962D01*
X908162Y703070D01*
X910478Y701732D01*
X913062Y701040D01*
X915738D01*
X918322Y701732D01*
X920638Y703070D01*
X922530Y704962D01*
X923868Y707278D01*
X924560Y709862D01*
Y712538D01*
X923868Y715122D01*
X922530Y717438D01*
X920638Y719330D01*
X918322Y720668D01*
X915738Y721360D01*
D02*
G37*
G36*
X890338D02*
X887662D01*
X885078Y720668D01*
X882762Y719330D01*
X880870Y717438D01*
X879532Y715122D01*
X878840Y712538D01*
Y709862D01*
X879532Y707278D01*
X880870Y704962D01*
X882762Y703070D01*
X885078Y701732D01*
X887662Y701040D01*
X890338D01*
X892922Y701732D01*
X895238Y703070D01*
X897130Y704962D01*
X898468Y707278D01*
X899160Y709862D01*
Y712538D01*
X898468Y715122D01*
X897130Y717438D01*
X895238Y719330D01*
X892922Y720668D01*
X890338Y721360D01*
D02*
G37*
G36*
X849698D02*
X847022D01*
X844438Y720668D01*
X842122Y719330D01*
X840230Y717438D01*
X838892Y715122D01*
X838200Y712538D01*
Y709862D01*
X838892Y707278D01*
X840230Y704962D01*
X842122Y703070D01*
X844438Y701732D01*
X847022Y701040D01*
X849698D01*
X852282Y701732D01*
X854598Y703070D01*
X856490Y704962D01*
X857828Y707278D01*
X858520Y709862D01*
Y712538D01*
X857828Y715122D01*
X856490Y717438D01*
X854598Y719330D01*
X852282Y720668D01*
X849698Y721360D01*
D02*
G37*
G36*
X824298D02*
X821622D01*
X819038Y720668D01*
X816722Y719330D01*
X814830Y717438D01*
X813492Y715122D01*
X812800Y712538D01*
Y709862D01*
X813492Y707278D01*
X814830Y704962D01*
X816722Y703070D01*
X819038Y701732D01*
X821622Y701040D01*
X824298D01*
X826882Y701732D01*
X829198Y703070D01*
X831090Y704962D01*
X832428Y707278D01*
X833120Y709862D01*
Y712538D01*
X832428Y715122D01*
X831090Y717438D01*
X829198Y719330D01*
X826882Y720668D01*
X824298Y721360D01*
D02*
G37*
G36*
X798898D02*
X796222D01*
X793638Y720668D01*
X791322Y719330D01*
X789430Y717438D01*
X788092Y715122D01*
X787400Y712538D01*
Y709862D01*
X788092Y707278D01*
X789430Y704962D01*
X791322Y703070D01*
X793638Y701732D01*
X796222Y701040D01*
X798898D01*
X801482Y701732D01*
X803798Y703070D01*
X805690Y704962D01*
X807028Y707278D01*
X807720Y709862D01*
Y712538D01*
X807028Y715122D01*
X805690Y717438D01*
X803798Y719330D01*
X801482Y720668D01*
X798898Y721360D01*
D02*
G37*
G36*
X773498D02*
X770822D01*
X768238Y720668D01*
X765922Y719330D01*
X764030Y717438D01*
X762692Y715122D01*
X762000Y712538D01*
Y709862D01*
X762692Y707278D01*
X764030Y704962D01*
X765922Y703070D01*
X768238Y701732D01*
X770822Y701040D01*
X773498D01*
X776082Y701732D01*
X778398Y703070D01*
X780290Y704962D01*
X781628Y707278D01*
X782320Y709862D01*
Y712538D01*
X781628Y715122D01*
X780290Y717438D01*
X778398Y719330D01*
X776082Y720668D01*
X773498Y721360D01*
D02*
G37*
G36*
X748098D02*
X745422D01*
X742838Y720668D01*
X740522Y719330D01*
X738630Y717438D01*
X737292Y715122D01*
X736600Y712538D01*
Y709862D01*
X737292Y707278D01*
X738630Y704962D01*
X740522Y703070D01*
X742838Y701732D01*
X745422Y701040D01*
X748098D01*
X750682Y701732D01*
X752998Y703070D01*
X754890Y704962D01*
X756228Y707278D01*
X756920Y709862D01*
Y712538D01*
X756228Y715122D01*
X754890Y717438D01*
X752998Y719330D01*
X750682Y720668D01*
X748098Y721360D01*
D02*
G37*
G36*
X722698D02*
X720022D01*
X717438Y720668D01*
X715122Y719330D01*
X713230Y717438D01*
X711892Y715122D01*
X711200Y712538D01*
Y709862D01*
X711892Y707278D01*
X713230Y704962D01*
X715122Y703070D01*
X717438Y701732D01*
X720022Y701040D01*
X722698D01*
X725282Y701732D01*
X727598Y703070D01*
X729490Y704962D01*
X730828Y707278D01*
X731520Y709862D01*
Y712538D01*
X730828Y715122D01*
X729490Y717438D01*
X727598Y719330D01*
X725282Y720668D01*
X722698Y721360D01*
D02*
G37*
G36*
X706120Y709930D02*
X697230D01*
Y701040D01*
X697298D01*
X699882Y701732D01*
X702198Y703070D01*
X704090Y704962D01*
X705428Y707278D01*
X706120Y709862D01*
Y709930D01*
D02*
G37*
G36*
X694690D02*
X685800D01*
Y709862D01*
X686492Y707278D01*
X687830Y704962D01*
X689722Y703070D01*
X692038Y701732D01*
X694622Y701040D01*
X694690D01*
Y709930D01*
D02*
G37*
G36*
X671898Y721360D02*
X669222D01*
X666638Y720668D01*
X664322Y719330D01*
X662430Y717438D01*
X661092Y715122D01*
X660400Y712538D01*
Y709862D01*
X661092Y707278D01*
X662430Y704962D01*
X664322Y703070D01*
X666638Y701732D01*
X669222Y701040D01*
X671898D01*
X674482Y701732D01*
X676798Y703070D01*
X678690Y704962D01*
X680028Y707278D01*
X680720Y709862D01*
Y712538D01*
X680028Y715122D01*
X678690Y717438D01*
X676798Y719330D01*
X674482Y720668D01*
X671898Y721360D01*
D02*
G37*
G36*
X646498D02*
X643822D01*
X641238Y720668D01*
X638922Y719330D01*
X637030Y717438D01*
X635692Y715122D01*
X635000Y712538D01*
Y709862D01*
X635692Y707278D01*
X637030Y704962D01*
X638922Y703070D01*
X641238Y701732D01*
X643822Y701040D01*
X646498D01*
X649082Y701732D01*
X651398Y703070D01*
X653290Y704962D01*
X654628Y707278D01*
X655320Y709862D01*
Y712538D01*
X654628Y715122D01*
X653290Y717438D01*
X651398Y719330D01*
X649082Y720668D01*
X646498Y721360D01*
D02*
G37*
G36*
X621098D02*
X618422D01*
X615838Y720668D01*
X613522Y719330D01*
X611630Y717438D01*
X610292Y715122D01*
X609600Y712538D01*
Y709862D01*
X610292Y707278D01*
X611630Y704962D01*
X613522Y703070D01*
X615838Y701732D01*
X618422Y701040D01*
X621098D01*
X623682Y701732D01*
X625998Y703070D01*
X627890Y704962D01*
X629228Y707278D01*
X629920Y709862D01*
Y712538D01*
X629228Y715122D01*
X627890Y717438D01*
X625998Y719330D01*
X623682Y720668D01*
X621098Y721360D01*
D02*
G37*
G36*
X768293Y661416D02*
X765867D01*
X763627Y660488D01*
X761912Y658773D01*
X760984Y656533D01*
Y654107D01*
X761912Y651867D01*
X763627Y650152D01*
X765867Y649224D01*
X768293D01*
X770533Y650152D01*
X772248Y651867D01*
X773176Y654107D01*
Y656533D01*
X772248Y658773D01*
X770533Y660488D01*
X768293Y661416D01*
D02*
G37*
G36*
X747973Y651256D02*
X745547D01*
X743307Y650328D01*
X741592Y648613D01*
X740664Y646373D01*
Y643947D01*
X741592Y641707D01*
X743307Y639992D01*
X745547Y639064D01*
X747973D01*
X750213Y639992D01*
X751928Y641707D01*
X752856Y643947D01*
Y646373D01*
X751928Y648613D01*
X750213Y650328D01*
X747973Y651256D01*
D02*
G37*
G36*
X1169905Y646430D02*
X1169670D01*
Y636270D01*
X1179830D01*
Y636505D01*
X1179051Y639412D01*
X1177546Y642018D01*
X1175418Y644146D01*
X1172812Y645651D01*
X1169905Y646430D01*
D02*
G37*
G36*
X1167130D02*
X1166895D01*
X1163988Y645651D01*
X1161382Y644146D01*
X1159254Y642018D01*
X1157749Y639412D01*
X1156970Y636505D01*
Y636270D01*
X1167130D01*
Y646430D01*
D02*
G37*
G36*
X1144505D02*
X1144270D01*
Y636270D01*
X1154430D01*
Y636505D01*
X1153651Y639412D01*
X1152146Y642018D01*
X1150018Y644146D01*
X1147412Y645651D01*
X1144505Y646430D01*
D02*
G37*
G36*
X1141730D02*
X1141495D01*
X1138588Y645651D01*
X1135982Y644146D01*
X1133854Y642018D01*
X1132349Y639412D01*
X1131570Y636505D01*
Y636270D01*
X1141730D01*
Y646430D01*
D02*
G37*
G36*
X1119105D02*
X1118870D01*
Y636270D01*
X1129030D01*
Y636505D01*
X1128251Y639412D01*
X1126746Y642018D01*
X1124618Y644146D01*
X1122012Y645651D01*
X1119105Y646430D01*
D02*
G37*
G36*
X1116330D02*
X1116095D01*
X1113188Y645651D01*
X1110582Y644146D01*
X1108454Y642018D01*
X1106949Y639412D01*
X1106170Y636505D01*
Y636270D01*
X1116330D01*
Y646430D01*
D02*
G37*
G36*
X1179830Y633730D02*
X1169670D01*
Y623570D01*
X1169905D01*
X1172812Y624349D01*
X1175418Y625854D01*
X1177546Y627982D01*
X1179051Y630588D01*
X1179830Y633495D01*
Y633730D01*
D02*
G37*
G36*
X1167130D02*
X1156970D01*
Y633495D01*
X1157749Y630588D01*
X1159254Y627982D01*
X1161382Y625854D01*
X1163988Y624349D01*
X1166895Y623570D01*
X1167130D01*
Y633730D01*
D02*
G37*
G36*
X1154430D02*
X1144270D01*
Y623570D01*
X1144505D01*
X1147412Y624349D01*
X1150018Y625854D01*
X1152146Y627982D01*
X1153651Y630588D01*
X1154430Y633495D01*
Y633730D01*
D02*
G37*
G36*
X1141730D02*
X1131570D01*
Y633495D01*
X1132349Y630588D01*
X1133854Y627982D01*
X1135982Y625854D01*
X1138588Y624349D01*
X1141495Y623570D01*
X1141730D01*
Y633730D01*
D02*
G37*
G36*
X1129030D02*
X1118870D01*
Y623570D01*
X1119105D01*
X1122012Y624349D01*
X1124618Y625854D01*
X1126746Y627982D01*
X1128251Y630588D01*
X1129030Y633495D01*
Y633730D01*
D02*
G37*
G36*
X1116330D02*
X1106170D01*
Y633495D01*
X1106949Y630588D01*
X1108454Y627982D01*
X1110582Y625854D01*
X1113188Y624349D01*
X1116095Y623570D01*
X1116330D01*
Y633730D01*
D02*
G37*
G36*
X1093705Y646430D02*
X1090695D01*
X1087788Y645651D01*
X1085182Y644146D01*
X1083054Y642018D01*
X1081549Y639412D01*
X1080770Y636505D01*
Y633495D01*
X1081549Y630588D01*
X1083054Y627982D01*
X1085182Y625854D01*
X1087788Y624349D01*
X1090695Y623570D01*
X1093705D01*
X1096612Y624349D01*
X1099218Y625854D01*
X1101346Y627982D01*
X1102851Y630588D01*
X1103630Y633495D01*
Y636505D01*
X1102851Y639412D01*
X1101346Y642018D01*
X1099218Y644146D01*
X1096612Y645651D01*
X1093705Y646430D01*
D02*
G37*
G36*
X509270Y605681D02*
Y585470D01*
X520648D01*
Y593200D01*
X520217Y596474D01*
X518954Y599524D01*
X516944Y602144D01*
X514324Y604154D01*
X511274Y605417D01*
X509270Y605681D01*
D02*
G37*
G36*
X506730D02*
X504726Y605417D01*
X501676Y604154D01*
X499056Y602144D01*
X497046Y599524D01*
X495783Y596474D01*
X495352Y593200D01*
Y585470D01*
X506730D01*
Y605681D01*
D02*
G37*
G36*
X520648Y582930D02*
X509270D01*
Y562719D01*
X511274Y562983D01*
X514324Y564246D01*
X516944Y566256D01*
X518954Y568876D01*
X520217Y571926D01*
X520648Y575200D01*
Y582930D01*
D02*
G37*
G36*
X506730D02*
X495352D01*
Y575200D01*
X495783Y571926D01*
X497046Y568876D01*
X499056Y566256D01*
X501676Y564246D01*
X504726Y562983D01*
X506730Y562719D01*
Y582930D01*
D02*
G37*
G36*
X568000Y605848D02*
X564726Y605417D01*
X561676Y604154D01*
X559056Y602144D01*
X557046Y599524D01*
X555783Y596474D01*
X555352Y593200D01*
Y575200D01*
X555783Y571926D01*
X557046Y568876D01*
X559056Y566256D01*
X561676Y564246D01*
X564726Y562983D01*
X568000Y562552D01*
X571274Y562983D01*
X574324Y564246D01*
X576944Y566256D01*
X578954Y568876D01*
X580217Y571926D01*
X580648Y575200D01*
Y593200D01*
X580217Y596474D01*
X578954Y599524D01*
X576944Y602144D01*
X574324Y604154D01*
X571274Y605417D01*
X568000Y605848D01*
D02*
G37*
G36*
X1169905Y570230D02*
X1169670D01*
Y560070D01*
X1179830D01*
Y560305D01*
X1179051Y563212D01*
X1177546Y565818D01*
X1175418Y567946D01*
X1172812Y569451D01*
X1169905Y570230D01*
D02*
G37*
G36*
X1167130D02*
X1166895D01*
X1163988Y569451D01*
X1161382Y567946D01*
X1159254Y565818D01*
X1157749Y563212D01*
X1156970Y560305D01*
Y560070D01*
X1167130D01*
Y570230D01*
D02*
G37*
G36*
X1144505D02*
X1144270D01*
Y560070D01*
X1154430D01*
Y560305D01*
X1153651Y563212D01*
X1152146Y565818D01*
X1150018Y567946D01*
X1147412Y569451D01*
X1144505Y570230D01*
D02*
G37*
G36*
X1141730D02*
X1141495D01*
X1138588Y569451D01*
X1135982Y567946D01*
X1133854Y565818D01*
X1132349Y563212D01*
X1131570Y560305D01*
Y560070D01*
X1141730D01*
Y570230D01*
D02*
G37*
G36*
X1119105D02*
X1118870D01*
Y560070D01*
X1129030D01*
Y560305D01*
X1128251Y563212D01*
X1126746Y565818D01*
X1124618Y567946D01*
X1122012Y569451D01*
X1119105Y570230D01*
D02*
G37*
G36*
X1116330D02*
X1116095D01*
X1113188Y569451D01*
X1110582Y567946D01*
X1108454Y565818D01*
X1106949Y563212D01*
X1106170Y560305D01*
Y560070D01*
X1116330D01*
Y570230D01*
D02*
G37*
G36*
X1179830Y557530D02*
X1169670D01*
Y547370D01*
X1169905D01*
X1172812Y548149D01*
X1175418Y549654D01*
X1177546Y551782D01*
X1179051Y554388D01*
X1179830Y557295D01*
Y557530D01*
D02*
G37*
G36*
X1167130D02*
X1156970D01*
Y557295D01*
X1157749Y554388D01*
X1159254Y551782D01*
X1161382Y549654D01*
X1163988Y548149D01*
X1166895Y547370D01*
X1167130D01*
Y557530D01*
D02*
G37*
G36*
X1154430D02*
X1144270D01*
Y547370D01*
X1144505D01*
X1147412Y548149D01*
X1150018Y549654D01*
X1152146Y551782D01*
X1153651Y554388D01*
X1154430Y557295D01*
Y557530D01*
D02*
G37*
G36*
X1141730D02*
X1131570D01*
Y557295D01*
X1132349Y554388D01*
X1133854Y551782D01*
X1135982Y549654D01*
X1138588Y548149D01*
X1141495Y547370D01*
X1141730D01*
Y557530D01*
D02*
G37*
G36*
X1129030D02*
X1118870D01*
Y547370D01*
X1119105D01*
X1122012Y548149D01*
X1124618Y549654D01*
X1126746Y551782D01*
X1128251Y554388D01*
X1129030Y557295D01*
Y557530D01*
D02*
G37*
G36*
X1116330D02*
X1106170D01*
Y557295D01*
X1106949Y554388D01*
X1108454Y551782D01*
X1110582Y549654D01*
X1113188Y548149D01*
X1116095Y547370D01*
X1116330D01*
Y557530D01*
D02*
G37*
G36*
X1093705Y570230D02*
X1090695D01*
X1087788Y569451D01*
X1085182Y567946D01*
X1083054Y565818D01*
X1081549Y563212D01*
X1080770Y560305D01*
Y557295D01*
X1081549Y554388D01*
X1083054Y551782D01*
X1085182Y549654D01*
X1087788Y548149D01*
X1090695Y547370D01*
X1093705D01*
X1096612Y548149D01*
X1099218Y549654D01*
X1101346Y551782D01*
X1102851Y554388D01*
X1103630Y557295D01*
Y560305D01*
X1102851Y563212D01*
X1101346Y565818D01*
X1099218Y567946D01*
X1096612Y569451D01*
X1093705Y570230D01*
D02*
G37*
G36*
X550500Y549339D02*
X544270D01*
Y538970D01*
X561972D01*
X561743Y540713D01*
X560580Y543520D01*
X558730Y545930D01*
X556320Y547780D01*
X553513Y548943D01*
X550500Y549339D01*
D02*
G37*
G36*
X541730D02*
X535500D01*
X532487Y548943D01*
X529680Y547780D01*
X527270Y545930D01*
X525420Y543520D01*
X524257Y540713D01*
X524028Y538970D01*
X541730D01*
Y549339D01*
D02*
G37*
G36*
X561972Y536430D02*
X544270D01*
Y526060D01*
X550500D01*
X553513Y526457D01*
X556320Y527620D01*
X558730Y529470D01*
X560580Y531880D01*
X561743Y534687D01*
X561972Y536430D01*
D02*
G37*
G36*
X541730D02*
X524028D01*
X524257Y534687D01*
X525420Y531880D01*
X527270Y529470D01*
X529680Y527620D01*
X532487Y526457D01*
X535500Y526060D01*
X541730D01*
Y536430D01*
D02*
G37*
G36*
X1012133Y536956D02*
X1009707D01*
X1007467Y536028D01*
X1005752Y534313D01*
X1004824Y532073D01*
Y529647D01*
X1005752Y527407D01*
X1007467Y525692D01*
X1009707Y524764D01*
X1012133D01*
X1014373Y525692D01*
X1016088Y527407D01*
X1017016Y529647D01*
Y532073D01*
X1016088Y534313D01*
X1014373Y536028D01*
X1012133Y536956D01*
D02*
G37*
G36*
X610938Y533400D02*
X608262D01*
X605678Y532708D01*
X603362Y531370D01*
X601470Y529478D01*
X600132Y527162D01*
X599440Y524578D01*
Y521902D01*
X600132Y519318D01*
X601470Y517002D01*
X603362Y515110D01*
X605678Y513772D01*
X608262Y513080D01*
X610938D01*
X613522Y513772D01*
X615838Y515110D01*
X617730Y517002D01*
X619068Y519318D01*
X619760Y521902D01*
Y524578D01*
X619068Y527162D01*
X617730Y529478D01*
X615838Y531370D01*
X613522Y532708D01*
X610938Y533400D01*
D02*
G37*
G36*
X1012133Y511556D02*
X1009707D01*
X1007467Y510628D01*
X1005752Y508913D01*
X1004824Y506673D01*
Y504247D01*
X1005752Y502007D01*
X1007467Y500292D01*
X1009707Y499364D01*
X1012133D01*
X1014373Y500292D01*
X1016088Y502007D01*
X1017016Y504247D01*
Y506673D01*
X1016088Y508913D01*
X1014373Y510628D01*
X1012133Y511556D01*
D02*
G37*
G36*
X558642Y503013D02*
X553912D01*
Y495670D01*
X567088D01*
X566962Y496629D01*
X566101Y498706D01*
X564732Y500490D01*
X562948Y501859D01*
X560871Y502720D01*
X558642Y503013D01*
D02*
G37*
G36*
X511142D02*
X506412D01*
Y495670D01*
X519588D01*
X519462Y496629D01*
X518601Y498706D01*
X517232Y500490D01*
X515448Y501859D01*
X513371Y502720D01*
X511142Y503013D01*
D02*
G37*
G36*
X503871D02*
X499142D01*
X496912Y502720D01*
X494835Y501859D01*
X493051Y500490D01*
X491682Y498706D01*
X490821Y496629D01*
X490695Y495670D01*
X503871D01*
Y503013D01*
D02*
G37*
G36*
X551371D02*
X546642D01*
X544412Y502720D01*
X542335Y501859D01*
X540551Y500490D01*
X539182Y498706D01*
X538321Y496629D01*
X538195Y495670D01*
X551371D01*
Y503013D01*
D02*
G37*
G36*
X610938Y508000D02*
X608262D01*
X605678Y507308D01*
X603362Y505970D01*
X601470Y504078D01*
X600132Y501762D01*
X599440Y499178D01*
Y496502D01*
X600132Y493918D01*
X601470Y491602D01*
X603362Y489710D01*
X605678Y488372D01*
X608262Y487680D01*
X610938D01*
X613522Y488372D01*
X615838Y489710D01*
X617730Y491602D01*
X619068Y493918D01*
X619760Y496502D01*
Y499178D01*
X619068Y501762D01*
X617730Y504078D01*
X615838Y505970D01*
X613522Y507308D01*
X610938Y508000D01*
D02*
G37*
G36*
X567088Y493130D02*
X553912D01*
Y485786D01*
X558642D01*
X560871Y486079D01*
X562948Y486940D01*
X564732Y488309D01*
X566101Y490093D01*
X566962Y492170D01*
X567088Y493130D01*
D02*
G37*
G36*
X551371D02*
X538195D01*
X538321Y492170D01*
X539182Y490093D01*
X540551Y488309D01*
X542335Y486940D01*
X544412Y486079D01*
X546642Y485786D01*
X551371D01*
Y493130D01*
D02*
G37*
G36*
X519588D02*
X506412D01*
Y485786D01*
X511142D01*
X513371Y486079D01*
X515448Y486940D01*
X517232Y488309D01*
X518601Y490093D01*
X519462Y492170D01*
X519588Y493130D01*
D02*
G37*
G36*
X503871D02*
X490695D01*
X490821Y492170D01*
X491682Y490093D01*
X493051Y488309D01*
X494835Y486940D01*
X496912Y486079D01*
X499142Y485786D01*
X503871D01*
Y493130D01*
D02*
G37*
G36*
X562783Y481540D02*
X560534D01*
X558362Y480958D01*
X556415Y479834D01*
X554825Y478244D01*
X553700Y476296D01*
X553119Y474124D01*
X551595Y473314D01*
X550746Y473542D01*
X548497D01*
X546325Y472960D01*
X544378Y471835D01*
X542788Y470245D01*
X541664Y468298D01*
X541082Y466126D01*
Y463877D01*
X541664Y461705D01*
X542788Y459758D01*
X544378Y458168D01*
X544873Y457882D01*
Y456122D01*
X544378Y455836D01*
X542788Y454246D01*
X541664Y452299D01*
X541082Y450126D01*
Y447878D01*
X541664Y445706D01*
X542788Y443759D01*
X544378Y442169D01*
X546325Y441044D01*
X548497Y440462D01*
X550746D01*
X551595Y440690D01*
X553119Y439877D01*
X553700Y437705D01*
X554825Y435757D01*
X556415Y434168D01*
X558362Y433043D01*
X560388Y432500D01*
Y441001D01*
X561659D01*
Y442271D01*
X570159D01*
X569617Y444297D01*
X568492Y446245D01*
X566902Y447835D01*
X566407Y448121D01*
Y449881D01*
X566902Y450167D01*
X568492Y451757D01*
X569617Y453704D01*
X570199Y455876D01*
Y458125D01*
X569617Y460297D01*
X568492Y462244D01*
X566902Y463834D01*
X566407Y464120D01*
Y465880D01*
X566902Y466166D01*
X568492Y467756D01*
X569617Y469704D01*
X570199Y471876D01*
Y474124D01*
X569617Y476296D01*
X568492Y478244D01*
X566902Y479834D01*
X564955Y480958D01*
X562783Y481540D01*
D02*
G37*
G36*
X1042821Y493390D02*
X1039979D01*
X1037235Y492655D01*
X1034775Y491234D01*
X1032766Y489225D01*
X1031345Y486765D01*
X1030610Y484021D01*
Y481180D01*
X1031345Y478435D01*
X1032766Y475975D01*
X1034775Y473966D01*
X1037235Y472545D01*
X1039979Y471810D01*
X1042821D01*
X1045565Y472545D01*
X1048025Y473966D01*
X1050034Y475975D01*
X1051455Y478435D01*
X1052190Y481180D01*
Y484021D01*
X1051455Y486765D01*
X1050034Y489225D01*
X1048025Y491234D01*
X1045565Y492655D01*
X1042821Y493390D01*
D02*
G37*
G36*
X1012133Y475996D02*
X1009707D01*
X1007467Y475068D01*
X1005752Y473353D01*
X1004824Y471113D01*
Y468687D01*
X1005752Y466447D01*
X1007467Y464732D01*
X1009707Y463804D01*
X1012133D01*
X1014373Y464732D01*
X1016088Y466447D01*
X1017016Y468687D01*
Y471113D01*
X1016088Y473353D01*
X1014373Y475068D01*
X1012133Y475996D01*
D02*
G37*
G36*
X753053D02*
X750627D01*
X748387Y475068D01*
X746672Y473353D01*
X745744Y471113D01*
Y468687D01*
X746672Y466447D01*
X748387Y464732D01*
X750627Y463804D01*
X753053D01*
X755293Y464732D01*
X757008Y466447D01*
X757936Y468687D01*
Y471113D01*
X757008Y473353D01*
X755293Y475068D01*
X753053Y475996D01*
D02*
G37*
G36*
X737813D02*
X735387D01*
X733147Y475068D01*
X731432Y473353D01*
X730504Y471113D01*
Y468687D01*
X731432Y466447D01*
X733147Y464732D01*
X735387Y463804D01*
X737813D01*
X740053Y464732D01*
X741768Y466447D01*
X742696Y468687D01*
Y471113D01*
X741768Y473353D01*
X740053Y475068D01*
X737813Y475996D01*
D02*
G37*
G36*
X610938Y482600D02*
X608262D01*
X605678Y481908D01*
X603362Y480570D01*
X601470Y478678D01*
X600132Y476362D01*
X599440Y473778D01*
Y471102D01*
X600132Y468518D01*
X601470Y466202D01*
X603362Y464310D01*
X605678Y462972D01*
X608262Y462280D01*
X610938D01*
X613522Y462972D01*
X615838Y464310D01*
X617730Y466202D01*
X619068Y468518D01*
X619760Y471102D01*
Y473778D01*
X619068Y476362D01*
X617730Y478678D01*
X615838Y480570D01*
X613522Y481908D01*
X610938Y482600D01*
D02*
G37*
G36*
X986733Y473456D02*
X984307D01*
X982067Y472528D01*
X980352Y470813D01*
X979424Y468573D01*
Y466147D01*
X980352Y463907D01*
X982067Y462192D01*
X984307Y461264D01*
X986733D01*
X988973Y462192D01*
X990688Y463907D01*
X991616Y466147D01*
Y468573D01*
X990688Y470813D01*
X988973Y472528D01*
X986733Y473456D01*
D02*
G37*
G36*
X778453Y463296D02*
X776027D01*
X773787Y462368D01*
X772072Y460653D01*
X771144Y458413D01*
Y455987D01*
X772072Y453747D01*
X773787Y452032D01*
X776027Y451104D01*
X778453D01*
X780693Y452032D01*
X782408Y453747D01*
X783336Y455987D01*
Y458413D01*
X782408Y460653D01*
X780693Y462368D01*
X778453Y463296D01*
D02*
G37*
G36*
X1042821Y467990D02*
X1039979D01*
X1037235Y467255D01*
X1034775Y465834D01*
X1032766Y463825D01*
X1031345Y461365D01*
X1030610Y458620D01*
Y455779D01*
X1031345Y453035D01*
X1032766Y450575D01*
X1034775Y448566D01*
X1037235Y447145D01*
X1039979Y446410D01*
X1042821D01*
X1045565Y447145D01*
X1048025Y448566D01*
X1050034Y450575D01*
X1051455Y453035D01*
X1052190Y455779D01*
Y458620D01*
X1051455Y461365D01*
X1050034Y463825D01*
X1048025Y465834D01*
X1045565Y467255D01*
X1042821Y467990D01*
D02*
G37*
G36*
X946093Y453136D02*
X943667D01*
X941427Y452208D01*
X939712Y450493D01*
X938784Y448253D01*
Y445827D01*
X939712Y443587D01*
X941427Y441872D01*
X943667Y440944D01*
X946093D01*
X948333Y441872D01*
X950048Y443587D01*
X950976Y445827D01*
Y448253D01*
X950048Y450493D01*
X948333Y452208D01*
X946093Y453136D01*
D02*
G37*
G36*
X753053D02*
X750627D01*
X748387Y452208D01*
X746672Y450493D01*
X745744Y448253D01*
Y445827D01*
X746672Y443587D01*
X748387Y441872D01*
X750627Y440944D01*
X753053D01*
X755293Y441872D01*
X757008Y443587D01*
X757936Y445827D01*
Y448253D01*
X757008Y450493D01*
X755293Y452208D01*
X753053Y453136D01*
D02*
G37*
G36*
X737813D02*
X735387D01*
X733147Y452208D01*
X731432Y450493D01*
X730504Y448253D01*
Y445827D01*
X731432Y443587D01*
X733147Y441872D01*
X735387Y440944D01*
X737813D01*
X740053Y441872D01*
X741768Y443587D01*
X742696Y445827D01*
Y448253D01*
X741768Y450493D01*
X740053Y452208D01*
X737813Y453136D01*
D02*
G37*
G36*
X1012133Y450596D02*
X1009707D01*
X1007467Y449668D01*
X1005752Y447953D01*
X1004824Y445713D01*
Y443287D01*
X1005752Y441047D01*
X1007467Y439332D01*
X1009707Y438404D01*
X1012133D01*
X1014373Y439332D01*
X1016088Y441047D01*
X1017016Y443287D01*
Y445713D01*
X1016088Y447953D01*
X1014373Y449668D01*
X1012133Y450596D01*
D02*
G37*
G36*
X610938Y457200D02*
X608262D01*
X605678Y456508D01*
X603362Y455170D01*
X601470Y453278D01*
X600132Y450962D01*
X599440Y448378D01*
Y445702D01*
X600132Y443118D01*
X601470Y440802D01*
X603362Y438910D01*
X605678Y437572D01*
X608262Y436880D01*
X610938D01*
X613522Y437572D01*
X615838Y438910D01*
X617730Y440802D01*
X619068Y443118D01*
X619760Y445702D01*
Y448378D01*
X619068Y450962D01*
X617730Y453278D01*
X615838Y455170D01*
X613522Y456508D01*
X610938Y457200D01*
D02*
G37*
G36*
X570159Y439731D02*
X562929D01*
Y432500D01*
X564955Y433043D01*
X566902Y434168D01*
X568492Y435757D01*
X569617Y437705D01*
X570159Y439731D01*
D02*
G37*
G36*
X558642Y428614D02*
X553912D01*
Y421270D01*
X567088D01*
X566962Y422230D01*
X566101Y424307D01*
X564732Y426091D01*
X562948Y427460D01*
X560871Y428321D01*
X558642Y428614D01*
D02*
G37*
G36*
X511142D02*
X506412D01*
Y421270D01*
X519588D01*
X519462Y422230D01*
X518601Y424307D01*
X517232Y426091D01*
X515448Y427460D01*
X513371Y428321D01*
X511142Y428614D01*
D02*
G37*
G36*
X503871D02*
X499142D01*
X496912Y428321D01*
X494835Y427460D01*
X493051Y426091D01*
X491682Y424307D01*
X490821Y422230D01*
X490695Y421270D01*
X503871D01*
Y428614D01*
D02*
G37*
G36*
X551371D02*
X546642D01*
X544412Y428321D01*
X542335Y427460D01*
X540551Y426091D01*
X539182Y424307D01*
X538321Y422230D01*
X538195Y421270D01*
X551371D01*
Y428614D01*
D02*
G37*
G36*
X1042821Y442590D02*
X1039979D01*
X1037235Y441855D01*
X1034775Y440434D01*
X1032766Y438425D01*
X1031345Y435965D01*
X1030610Y433220D01*
Y430379D01*
X1031345Y427635D01*
X1032766Y425175D01*
X1034775Y423166D01*
X1037235Y421745D01*
X1039979Y421010D01*
X1042821D01*
X1045565Y421745D01*
X1048025Y423166D01*
X1050034Y425175D01*
X1051455Y427635D01*
X1052190Y430379D01*
Y433220D01*
X1051455Y435965D01*
X1050034Y438425D01*
X1048025Y440434D01*
X1045565Y441855D01*
X1042821Y442590D01*
D02*
G37*
G36*
X610938Y431800D02*
X608262D01*
X605678Y431108D01*
X603362Y429770D01*
X601470Y427878D01*
X600132Y425562D01*
X599440Y422978D01*
Y420302D01*
X600132Y417718D01*
X601470Y415402D01*
X603362Y413510D01*
X605678Y412172D01*
X608262Y411480D01*
X610938D01*
X613522Y412172D01*
X615838Y413510D01*
X617730Y415402D01*
X619068Y417718D01*
X619760Y420302D01*
Y422978D01*
X619068Y425562D01*
X617730Y427878D01*
X615838Y429770D01*
X613522Y431108D01*
X610938Y431800D01*
D02*
G37*
G36*
X567088Y418730D02*
X553912D01*
Y411387D01*
X558642D01*
X560871Y411680D01*
X562948Y412541D01*
X564732Y413910D01*
X566101Y415694D01*
X566962Y417771D01*
X567088Y418730D01*
D02*
G37*
G36*
X551371D02*
X538195D01*
X538321Y417771D01*
X539182Y415694D01*
X540551Y413910D01*
X542335Y412541D01*
X544412Y411680D01*
X546642Y411387D01*
X551371D01*
Y418730D01*
D02*
G37*
G36*
X519588D02*
X506412D01*
Y411387D01*
X511142D01*
X513371Y411680D01*
X515448Y412541D01*
X517232Y413910D01*
X518601Y415694D01*
X519462Y417771D01*
X519588Y418730D01*
D02*
G37*
G36*
X503871D02*
X490695D01*
X490821Y417771D01*
X491682Y415694D01*
X493051Y413910D01*
X494835Y412541D01*
X496912Y411680D01*
X499142Y411387D01*
X503871D01*
Y418730D01*
D02*
G37*
G36*
X610938Y406400D02*
X608262D01*
X605678Y405708D01*
X603362Y404370D01*
X601470Y402478D01*
X600132Y400162D01*
X599440Y397578D01*
Y394902D01*
X600132Y392318D01*
X601470Y390002D01*
X603362Y388110D01*
X605678Y386772D01*
X608262Y386080D01*
X610938D01*
X613522Y386772D01*
X615838Y388110D01*
X617730Y390002D01*
X619068Y392318D01*
X619760Y394902D01*
Y397578D01*
X619068Y400162D01*
X617730Y402478D01*
X615838Y404370D01*
X613522Y405708D01*
X610938Y406400D01*
D02*
G37*
G36*
X824173Y356616D02*
X821747D01*
X819507Y355688D01*
X817792Y353973D01*
X816864Y351733D01*
Y349307D01*
X817792Y347067D01*
X819507Y345352D01*
X821747Y344424D01*
X824173D01*
X826413Y345352D01*
X828128Y347067D01*
X829056Y349307D01*
Y351733D01*
X828128Y353973D01*
X826413Y355688D01*
X824173Y356616D01*
D02*
G37*
G36*
X535051Y360240D02*
X531749D01*
X528560Y359385D01*
X525700Y357734D01*
X523366Y355400D01*
X521715Y352540D01*
X520860Y349351D01*
Y346049D01*
X521715Y342860D01*
X523366Y340000D01*
X525700Y337665D01*
X528560Y336015D01*
X531749Y335160D01*
X535051D01*
X538240Y336015D01*
X541100Y337665D01*
X543434Y340000D01*
X545085Y342860D01*
X545940Y346049D01*
Y349351D01*
X545085Y352540D01*
X543434Y355400D01*
X541100Y357734D01*
X538240Y359385D01*
X535051Y360240D01*
D02*
G37*
G36*
X956253Y346456D02*
X953827D01*
X951587Y345528D01*
X949872Y343813D01*
X948944Y341573D01*
Y339147D01*
X949872Y336907D01*
X951587Y335192D01*
X953827Y334264D01*
X956253D01*
X958493Y335192D01*
X960208Y336907D01*
X961136Y339147D01*
Y341573D01*
X960208Y343813D01*
X958493Y345528D01*
X956253Y346456D01*
D02*
G37*
G36*
X925773D02*
X923347D01*
X921107Y345528D01*
X919392Y343813D01*
X918464Y341573D01*
Y339147D01*
X919392Y336907D01*
X921107Y335192D01*
X923347Y334264D01*
X925773D01*
X928013Y335192D01*
X929728Y336907D01*
X930656Y339147D01*
Y341573D01*
X929728Y343813D01*
X928013Y345528D01*
X925773Y346456D01*
D02*
G37*
G36*
X535051Y325240D02*
X534670D01*
Y313970D01*
X545940D01*
Y314351D01*
X545085Y317540D01*
X543434Y320400D01*
X541100Y322734D01*
X538240Y324385D01*
X535051Y325240D01*
D02*
G37*
G36*
X532130D02*
X531749D01*
X528560Y324385D01*
X525700Y322734D01*
X523366Y320400D01*
X521715Y317540D01*
X520860Y314351D01*
Y313970D01*
X532130D01*
Y325240D01*
D02*
G37*
G36*
X649608Y320420D02*
X649490D01*
Y311150D01*
X658760D01*
Y311268D01*
X658042Y313948D01*
X656654Y316352D01*
X654692Y318314D01*
X652288Y319702D01*
X649608Y320420D01*
D02*
G37*
G36*
X646950D02*
X646832D01*
X644152Y319702D01*
X641748Y318314D01*
X639786Y316352D01*
X638398Y313948D01*
X637680Y311268D01*
Y311150D01*
X646950D01*
Y320420D01*
D02*
G37*
G36*
X953713Y315976D02*
X951287D01*
X949047Y315048D01*
X947332Y313333D01*
X946404Y311093D01*
Y308667D01*
X947332Y306427D01*
X949047Y304712D01*
X951287Y303784D01*
X953713D01*
X955953Y304712D01*
X957668Y306427D01*
X958596Y308667D01*
Y311093D01*
X957668Y313333D01*
X955953Y315048D01*
X953713Y315976D01*
D02*
G37*
G36*
X920693D02*
X918267D01*
X916027Y315048D01*
X914312Y313333D01*
X913384Y311093D01*
Y308667D01*
X914312Y306427D01*
X916027Y304712D01*
X918267Y303784D01*
X920693D01*
X922933Y304712D01*
X924648Y306427D01*
X925576Y308667D01*
Y311093D01*
X924648Y313333D01*
X922933Y315048D01*
X920693Y315976D01*
D02*
G37*
G36*
X545940Y311430D02*
X534670D01*
Y300160D01*
X535051D01*
X538240Y301015D01*
X541100Y302666D01*
X543434Y305000D01*
X545085Y307860D01*
X545940Y311049D01*
Y311430D01*
D02*
G37*
G36*
X532130D02*
X520860D01*
Y311049D01*
X521715Y307860D01*
X523366Y305000D01*
X525700Y302666D01*
X528560Y301015D01*
X531749Y300160D01*
X532130D01*
Y311430D01*
D02*
G37*
G36*
X714608Y320420D02*
X711832D01*
X709152Y319702D01*
X706748Y318314D01*
X704786Y316352D01*
X703398Y313948D01*
X702680Y311268D01*
Y308492D01*
X703398Y305812D01*
X704786Y303408D01*
X706748Y301446D01*
X709152Y300058D01*
X711832Y299340D01*
X714608D01*
X717288Y300058D01*
X719692Y301446D01*
X721654Y303408D01*
X723042Y305812D01*
X723760Y308492D01*
Y311268D01*
X723042Y313948D01*
X721654Y316352D01*
X719692Y318314D01*
X717288Y319702D01*
X714608Y320420D01*
D02*
G37*
G36*
X658760Y308610D02*
X649490D01*
Y299340D01*
X649608D01*
X652288Y300058D01*
X654692Y301446D01*
X656654Y303408D01*
X658042Y305812D01*
X658760Y308492D01*
Y308610D01*
D02*
G37*
G36*
X646950D02*
X637680D01*
Y308492D01*
X638398Y305812D01*
X639786Y303408D01*
X641748Y301446D01*
X644152Y300058D01*
X646832Y299340D01*
X646950D01*
Y308610D01*
D02*
G37*
G36*
X864938Y238760D02*
X864870D01*
Y229870D01*
X873760D01*
Y229938D01*
X873068Y232522D01*
X871730Y234838D01*
X869838Y236730D01*
X867522Y238068D01*
X864938Y238760D01*
D02*
G37*
G36*
X839538D02*
X839470D01*
Y229870D01*
X848360D01*
Y229938D01*
X847668Y232522D01*
X846330Y234838D01*
X844438Y236730D01*
X842122Y238068D01*
X839538Y238760D01*
D02*
G37*
G36*
X862330D02*
X862262D01*
X859678Y238068D01*
X857362Y236730D01*
X855470Y234838D01*
X854132Y232522D01*
X853440Y229938D01*
Y229870D01*
X862330D01*
Y238760D01*
D02*
G37*
G36*
X836930D02*
X836862D01*
X834278Y238068D01*
X831962Y236730D01*
X830070Y234838D01*
X828732Y232522D01*
X828040Y229938D01*
Y229870D01*
X836930D01*
Y238760D01*
D02*
G37*
G36*
X1068138D02*
X1065462D01*
X1062878Y238068D01*
X1060562Y236730D01*
X1058670Y234838D01*
X1057332Y232522D01*
X1056640Y229938D01*
Y227262D01*
X1057332Y224678D01*
X1058670Y222362D01*
X1060562Y220470D01*
X1062878Y219132D01*
X1065462Y218440D01*
X1068138D01*
X1070722Y219132D01*
X1073038Y220470D01*
X1074930Y222362D01*
X1076268Y224678D01*
X1076960Y227262D01*
Y229938D01*
X1076268Y232522D01*
X1074930Y234838D01*
X1073038Y236730D01*
X1070722Y238068D01*
X1068138Y238760D01*
D02*
G37*
G36*
X1042738D02*
X1040062D01*
X1037478Y238068D01*
X1035162Y236730D01*
X1033270Y234838D01*
X1031932Y232522D01*
X1031240Y229938D01*
Y227262D01*
X1031932Y224678D01*
X1033270Y222362D01*
X1035162Y220470D01*
X1037478Y219132D01*
X1040062Y218440D01*
X1042738D01*
X1045322Y219132D01*
X1047638Y220470D01*
X1049530Y222362D01*
X1050868Y224678D01*
X1051560Y227262D01*
Y229938D01*
X1050868Y232522D01*
X1049530Y234838D01*
X1047638Y236730D01*
X1045322Y238068D01*
X1042738Y238760D01*
D02*
G37*
G36*
X1017338D02*
X1014662D01*
X1012078Y238068D01*
X1009762Y236730D01*
X1007870Y234838D01*
X1006532Y232522D01*
X1005840Y229938D01*
Y227262D01*
X1006532Y224678D01*
X1007870Y222362D01*
X1009762Y220470D01*
X1012078Y219132D01*
X1014662Y218440D01*
X1017338D01*
X1019922Y219132D01*
X1022238Y220470D01*
X1024130Y222362D01*
X1025468Y224678D01*
X1026160Y227262D01*
Y229938D01*
X1025468Y232522D01*
X1024130Y234838D01*
X1022238Y236730D01*
X1019922Y238068D01*
X1017338Y238760D01*
D02*
G37*
G36*
X991938D02*
X989262D01*
X986678Y238068D01*
X984362Y236730D01*
X982470Y234838D01*
X981132Y232522D01*
X980440Y229938D01*
Y227262D01*
X981132Y224678D01*
X982470Y222362D01*
X984362Y220470D01*
X986678Y219132D01*
X989262Y218440D01*
X991938D01*
X994522Y219132D01*
X996838Y220470D01*
X998730Y222362D01*
X1000068Y224678D01*
X1000760Y227262D01*
Y229938D01*
X1000068Y232522D01*
X998730Y234838D01*
X996838Y236730D01*
X994522Y238068D01*
X991938Y238760D01*
D02*
G37*
G36*
X966538D02*
X963862D01*
X961278Y238068D01*
X958962Y236730D01*
X957070Y234838D01*
X955732Y232522D01*
X955040Y229938D01*
Y227262D01*
X955732Y224678D01*
X957070Y222362D01*
X958962Y220470D01*
X961278Y219132D01*
X963862Y218440D01*
X966538D01*
X969122Y219132D01*
X971438Y220470D01*
X973330Y222362D01*
X974668Y224678D01*
X975360Y227262D01*
Y229938D01*
X974668Y232522D01*
X973330Y234838D01*
X971438Y236730D01*
X969122Y238068D01*
X966538Y238760D01*
D02*
G37*
G36*
X941138D02*
X938462D01*
X935878Y238068D01*
X933562Y236730D01*
X931670Y234838D01*
X930332Y232522D01*
X929640Y229938D01*
Y227262D01*
X930332Y224678D01*
X931670Y222362D01*
X933562Y220470D01*
X935878Y219132D01*
X938462Y218440D01*
X941138D01*
X943722Y219132D01*
X946038Y220470D01*
X947930Y222362D01*
X949268Y224678D01*
X949960Y227262D01*
Y229938D01*
X949268Y232522D01*
X947930Y234838D01*
X946038Y236730D01*
X943722Y238068D01*
X941138Y238760D01*
D02*
G37*
G36*
X890338D02*
X887662D01*
X885078Y238068D01*
X882762Y236730D01*
X880870Y234838D01*
X879532Y232522D01*
X878840Y229938D01*
Y227262D01*
X879532Y224678D01*
X880870Y222362D01*
X882762Y220470D01*
X885078Y219132D01*
X887662Y218440D01*
X890338D01*
X892922Y219132D01*
X895238Y220470D01*
X897130Y222362D01*
X898468Y224678D01*
X899160Y227262D01*
Y229938D01*
X898468Y232522D01*
X897130Y234838D01*
X895238Y236730D01*
X892922Y238068D01*
X890338Y238760D01*
D02*
G37*
G36*
X873760Y227330D02*
X864870D01*
Y218440D01*
X864938D01*
X867522Y219132D01*
X869838Y220470D01*
X871730Y222362D01*
X873068Y224678D01*
X873760Y227262D01*
Y227330D01*
D02*
G37*
G36*
X862330D02*
X853440D01*
Y227262D01*
X854132Y224678D01*
X855470Y222362D01*
X857362Y220470D01*
X859678Y219132D01*
X862262Y218440D01*
X862330D01*
Y227330D01*
D02*
G37*
G36*
X848360D02*
X839470D01*
Y218440D01*
X839538D01*
X842122Y219132D01*
X844438Y220470D01*
X846330Y222362D01*
X847668Y224678D01*
X848360Y227262D01*
Y227330D01*
D02*
G37*
G36*
X836930D02*
X828040D01*
Y227262D01*
X828732Y224678D01*
X830070Y222362D01*
X831962Y220470D01*
X834278Y219132D01*
X836862Y218440D01*
X836930D01*
Y227330D01*
D02*
G37*
G36*
X814138Y238760D02*
X811462D01*
X808878Y238068D01*
X806562Y236730D01*
X804670Y234838D01*
X803332Y232522D01*
X802640Y229938D01*
Y227262D01*
X803332Y224678D01*
X804670Y222362D01*
X806562Y220470D01*
X808878Y219132D01*
X811462Y218440D01*
X814138D01*
X816722Y219132D01*
X819038Y220470D01*
X820930Y222362D01*
X822268Y224678D01*
X822960Y227262D01*
Y229938D01*
X822268Y232522D01*
X820930Y234838D01*
X819038Y236730D01*
X816722Y238068D01*
X814138Y238760D01*
D02*
G37*
G36*
X788738D02*
X786062D01*
X783478Y238068D01*
X781162Y236730D01*
X779270Y234838D01*
X777932Y232522D01*
X777240Y229938D01*
Y227262D01*
X777932Y224678D01*
X779270Y222362D01*
X781162Y220470D01*
X783478Y219132D01*
X786062Y218440D01*
X788738D01*
X791322Y219132D01*
X793638Y220470D01*
X795530Y222362D01*
X796868Y224678D01*
X797560Y227262D01*
Y229938D01*
X796868Y232522D01*
X795530Y234838D01*
X793638Y236730D01*
X791322Y238068D01*
X788738Y238760D01*
D02*
G37*
G36*
X763338D02*
X760662D01*
X758078Y238068D01*
X755762Y236730D01*
X753870Y234838D01*
X752532Y232522D01*
X751840Y229938D01*
Y227262D01*
X752532Y224678D01*
X753870Y222362D01*
X755762Y220470D01*
X758078Y219132D01*
X760662Y218440D01*
X763338D01*
X765922Y219132D01*
X768238Y220470D01*
X770130Y222362D01*
X771468Y224678D01*
X772160Y227262D01*
Y229938D01*
X771468Y232522D01*
X770130Y234838D01*
X768238Y236730D01*
X765922Y238068D01*
X763338Y238760D01*
D02*
G37*
G36*
X737938D02*
X735262D01*
X732678Y238068D01*
X730362Y236730D01*
X728470Y234838D01*
X727132Y232522D01*
X726440Y229938D01*
Y227262D01*
X727132Y224678D01*
X728470Y222362D01*
X730362Y220470D01*
X732678Y219132D01*
X735262Y218440D01*
X737938D01*
X740522Y219132D01*
X742838Y220470D01*
X744730Y222362D01*
X746068Y224678D01*
X746760Y227262D01*
Y229938D01*
X746068Y232522D01*
X744730Y234838D01*
X742838Y236730D01*
X740522Y238068D01*
X737938Y238760D01*
D02*
G37*
G36*
X712538D02*
X709862D01*
X707278Y238068D01*
X704962Y236730D01*
X703070Y234838D01*
X701732Y232522D01*
X701040Y229938D01*
Y227262D01*
X701732Y224678D01*
X703070Y222362D01*
X704962Y220470D01*
X707278Y219132D01*
X709862Y218440D01*
X712538D01*
X715122Y219132D01*
X717438Y220470D01*
X719330Y222362D01*
X720668Y224678D01*
X721360Y227262D01*
Y229938D01*
X720668Y232522D01*
X719330Y234838D01*
X717438Y236730D01*
X715122Y238068D01*
X712538Y238760D01*
D02*
G37*
%LPD*%
D41*
X713220Y309880D02*
D03*
X648220D02*
D03*
D42*
X609600Y523240D02*
D03*
Y497840D02*
D03*
Y472440D02*
D03*
Y447040D02*
D03*
Y396240D02*
D03*
Y421640D02*
D03*
X848360Y711200D02*
D03*
X822960D02*
D03*
X797560D02*
D03*
X772160D02*
D03*
X746760D02*
D03*
X721360D02*
D03*
X695960D02*
D03*
X670560D02*
D03*
X645160D02*
D03*
X619760D02*
D03*
X939800Y228600D02*
D03*
X965200D02*
D03*
X990600D02*
D03*
X1016000D02*
D03*
X1066800D02*
D03*
X1041400D02*
D03*
X1066800Y711200D02*
D03*
X1041400D02*
D03*
X1016000D02*
D03*
X990600D02*
D03*
X965200D02*
D03*
X939800D02*
D03*
X914400D02*
D03*
X889000D02*
D03*
X711200Y228600D02*
D03*
X736600D02*
D03*
X762000D02*
D03*
X787400D02*
D03*
X812800D02*
D03*
X838200D02*
D03*
X863600D02*
D03*
X889000D02*
D03*
D43*
X1143000Y558800D02*
D03*
X1168400D02*
D03*
X1092200D02*
D03*
X1117600D02*
D03*
X1143000Y635000D02*
D03*
X1168400D02*
D03*
X1092200D02*
D03*
X1117600D02*
D03*
D44*
X505141Y494400D02*
D03*
X552641D02*
D03*
Y420000D02*
D03*
X505141D02*
D03*
D45*
X561659Y441001D02*
D03*
Y457001D02*
D03*
X549622Y449002D02*
D03*
Y465002D02*
D03*
X561659Y473000D02*
D03*
D46*
X568000Y584200D02*
D03*
X508000D02*
D03*
D47*
X543000Y537700D02*
D03*
D48*
X533400Y312700D02*
D03*
Y347700D02*
D03*
D49*
X1041400Y431800D02*
D03*
Y457200D02*
D03*
Y482600D02*
D03*
D50*
X858520Y534670D02*
D03*
X812800Y363220D02*
D03*
X746760Y645160D02*
D03*
X767080Y655320D02*
D03*
X922020Y579120D02*
D03*
X934720Y586740D02*
D03*
X861060Y599440D02*
D03*
X833120Y594360D02*
D03*
X777240Y457200D02*
D03*
X764540Y480060D02*
D03*
X723900D02*
D03*
X736600Y429260D02*
D03*
X751840D02*
D03*
Y447040D02*
D03*
X736600D02*
D03*
X751840Y469900D02*
D03*
X736600D02*
D03*
X965200Y330200D02*
D03*
X914400D02*
D03*
X1023620Y535940D02*
D03*
Y508000D02*
D03*
X1003300Y480060D02*
D03*
Y434340D02*
D03*
X962660Y299720D02*
D03*
X909320D02*
D03*
X850900Y393700D02*
D03*
X866140Y363220D02*
D03*
X927100Y370840D02*
D03*
X955040Y340360D02*
D03*
X952500Y309880D02*
D03*
X1010920Y444500D02*
D03*
Y469900D02*
D03*
Y505460D02*
D03*
Y530860D02*
D03*
X924560Y340360D02*
D03*
X919480Y309880D02*
D03*
X878840Y477520D02*
D03*
X985520Y434340D02*
D03*
X1000760Y594360D02*
D03*
X792480Y584200D02*
D03*
X817880Y513080D02*
D03*
X970280Y685800D02*
D03*
X904240D02*
D03*
X833120D02*
D03*
X762000D02*
D03*
X985520Y482600D02*
D03*
Y467360D02*
D03*
X944880Y434340D02*
D03*
Y447040D02*
D03*
X939800Y497840D02*
D03*
X828040Y363220D02*
D03*
X822960Y350520D02*
D03*
X848360Y379142D02*
D03*
X985520Y381000D02*
D03*
X1148080Y431800D02*
D03*
Y482600D02*
D03*
X797560Y466090D02*
D03*
M02*
